solid ASCII
  facet normal 0.000000e+00 0.000000e+00 -1.000000e+00
    outer loop
      vertex   3.300000e+01 2.000000e+00 5.525000e+01
      vertex   -3.300000e+01 2.000000e+00 5.525000e+01
      vertex   3.300000e+01 8.000000e+00 5.525000e+01
    endloop
  endfacet
  facet normal -0.000000e+00 0.000000e+00 -1.000000e+00
    outer loop
      vertex   3.300000e+01 8.000000e+00 5.525000e+01
      vertex   -3.300000e+01 2.000000e+00 5.525000e+01
      vertex   -3.300000e+01 8.000000e+00 5.525000e+01
    endloop
  endfacet
  facet normal 1.000000e+00 0.000000e+00 -5.144201e-16
    outer loop
      vertex   -3.300000e+01 2.000000e+00 5.525000e+01
      vertex   -3.300000e+01 2.000000e+00 -5.525000e+01
      vertex   -3.300000e+01 8.000000e+00 5.525000e+01
    endloop
  endfacet
  facet normal 1.000000e+00 0.000000e+00 -5.144201e-16
    outer loop
      vertex   -3.300000e+01 8.000000e+00 5.525000e+01
      vertex   -3.300000e+01 2.000000e+00 -5.525000e+01
      vertex   -3.300000e+01 8.000000e+00 -5.525000e+01
    endloop
  endfacet
  facet normal 0.000000e+00 0.000000e+00 1.000000e+00
    outer loop
      vertex   -3.300000e+01 2.000000e+00 -5.525000e+01
      vertex   3.300000e+01 2.000000e+00 -5.525000e+01
      vertex   -3.300000e+01 8.000000e+00 -5.525000e+01
    endloop
  endfacet
  facet normal -0.000000e+00 0.000000e+00 1.000000e+00
    outer loop
      vertex   -3.300000e+01 8.000000e+00 -5.525000e+01
      vertex   3.300000e+01 2.000000e+00 -5.525000e+01
      vertex   3.300000e+01 8.000000e+00 -5.525000e+01
    endloop
  endfacet
  facet normal -1.000000e+00 0.000000e+00 3.215126e-16
    outer loop
      vertex   3.300000e+01 2.000000e+00 -5.525000e+01
      vertex   3.300000e+01 2.000000e+00 5.525000e+01
      vertex   3.300000e+01 8.000000e+00 -5.525000e+01
    endloop
  endfacet
  facet normal -1.000000e+00 0.000000e+00 3.215126e-16
    outer loop
      vertex   3.300000e+01 8.000000e+00 -5.525000e+01
      vertex   3.300000e+01 2.000000e+00 5.525000e+01
      vertex   3.300000e+01 8.000000e+00 5.525000e+01
    endloop
  endfacet
  facet normal 0.000000e+00 1.000000e+00 0.000000e+00
    outer loop
      vertex   3.300000e+01 2.000000e+00 5.525000e+01
      vertex   3.300000e+01 2.000000e+00 -5.525000e+01
      vertex   -3.300000e+01 2.000000e+00 5.525000e+01
    endloop
  endfacet
  facet normal 0.000000e+00 1.000000e+00 0.000000e+00
    outer loop
      vertex   -3.300000e+01 2.000000e+00 5.525000e+01
      vertex   3.300000e+01 2.000000e+00 -5.525000e+01
      vertex   -3.300000e+01 2.000000e+00 -5.525000e+01
    endloop
  endfacet
  facet normal 1.015061e-16 -0.000000e+00 1.000000e+00
    outer loop
      vertex   -3.500000e+01 0.000000e+00 5.725000e+01
      vertex   3.500000e+01 0.000000e+00 5.725000e+01
      vertex   -3.500000e+01 8.000000e+00 5.725000e+01
    endloop
  endfacet
  facet normal 1.015061e-16 0.000000e+00 1.000000e+00
    outer loop
      vertex   -3.500000e+01 8.000000e+00 5.725000e+01
      vertex   3.500000e+01 0.000000e+00 5.725000e+01
      vertex   3.500000e+01 8.000000e+00 5.725000e+01
    endloop
  endfacet
  facet normal -1.000000e+00 -8.818707e-31 4.964491e-16
    outer loop
      vertex   -3.500000e+01 0.000000e+00 -5.725000e+01
      vertex   -3.500000e+01 0.000000e+00 5.725000e+01
      vertex   -3.500000e+01 8.000000e+00 -5.725000e+01
    endloop
  endfacet
  facet normal -1.000000e+00 0.000000e+00 4.964491e-16
    outer loop
      vertex   -3.500000e+01 8.000000e+00 -5.725000e+01
      vertex   -3.500000e+01 0.000000e+00 5.725000e+01
      vertex   -3.500000e+01 8.000000e+00 5.725000e+01
    endloop
  endfacet
  facet normal 0.000000e+00 1.776357e-15 -1.000000e+00
    outer loop
      vertex   3.500000e+01 0.000000e+00 -5.725000e+01
      vertex   -3.500000e+01 0.000000e+00 -5.725000e+01
      vertex   3.500000e+01 8.000000e+00 -5.725000e+01
    endloop
  endfacet
  facet normal 0.000000e+00 1.776357e-15 -1.000000e+00
    outer loop
      vertex   3.500000e+01 8.000000e+00 -5.725000e+01
      vertex   -3.500000e+01 0.000000e+00 -5.725000e+01
      vertex   -3.500000e+01 8.000000e+00 -5.725000e+01
    endloop
  endfacet
  facet normal 1.000000e+00 0.000000e+00 -3.102807e-16
    outer loop
      vertex   3.500000e+01 0.000000e+00 5.725000e+01
      vertex   3.500000e+01 0.000000e+00 -5.725000e+01
      vertex   3.500000e+01 8.000000e+00 5.725000e+01
    endloop
  endfacet
  facet normal 1.000000e+00 0.000000e+00 -3.102807e-16
    outer loop
      vertex   3.500000e+01 8.000000e+00 5.725000e+01
      vertex   3.500000e+01 0.000000e+00 -5.725000e+01
      vertex   3.500000e+01 8.000000e+00 -5.725000e+01
    endloop
  endfacet
  facet normal 0.000000e+00 1.000000e+00 -0.000000e+00
    outer loop
      vertex   -3.300000e+01 8.000000e+00 5.525000e+01
      vertex   -3.500000e+01 8.000000e+00 5.725000e+01
      vertex   3.300000e+01 8.000000e+00 5.525000e+01
    endloop
  endfacet
  facet normal 0.000000e+00 1.000000e+00 -0.000000e+00
    outer loop
      vertex   3.300000e+01 8.000000e+00 5.525000e+01
      vertex   -3.500000e+01 8.000000e+00 5.725000e+01
      vertex   3.500000e+01 8.000000e+00 5.725000e+01
    endloop
  endfacet
  facet normal -0.000000e+00 1.000000e+00 0.000000e+00
    outer loop
      vertex   3.300000e+01 8.000000e+00 5.525000e+01
      vertex   3.500000e+01 8.000000e+00 5.725000e+01
      vertex   3.500000e+01 8.000000e+00 -5.725000e+01
    endloop
  endfacet
  facet normal 0.000000e+00 1.000000e+00 0.000000e+00
    outer loop
      vertex   -3.300000e+01 8.000000e+00 5.525000e+01
      vertex   -3.300000e+01 8.000000e+00 -5.525000e+01
      vertex   -3.500000e+01 8.000000e+00 5.725000e+01
    endloop
  endfacet
  facet normal 0.000000e+00 1.000000e+00 0.000000e+00
    outer loop
      vertex   -3.500000e+01 8.000000e+00 5.725000e+01
      vertex   -3.300000e+01 8.000000e+00 -5.525000e+01
      vertex   -3.500000e+01 8.000000e+00 -5.725000e+01
    endloop
  endfacet
  facet normal 0.000000e+00 1.000000e+00 0.000000e+00
    outer loop
      vertex   -3.500000e+01 8.000000e+00 -5.725000e+01
      vertex   -3.300000e+01 8.000000e+00 -5.525000e+01
      vertex   3.300000e+01 8.000000e+00 -5.525000e+01
    endloop
  endfacet
  facet normal 0.000000e+00 1.000000e+00 0.000000e+00
    outer loop
      vertex   -3.500000e+01 8.000000e+00 -5.725000e+01
      vertex   3.300000e+01 8.000000e+00 -5.525000e+01
      vertex   3.500000e+01 8.000000e+00 -5.725000e+01
    endloop
  endfacet
  facet normal 0.000000e+00 1.000000e+00 0.000000e+00
    outer loop
      vertex   3.500000e+01 8.000000e+00 -5.725000e+01
      vertex   3.300000e+01 8.000000e+00 -5.525000e+01
      vertex   3.300000e+01 8.000000e+00 5.525000e+01
    endloop
  endfacet
  facet normal 0.000000e+00 -1.000000e+00 0.000000e+00
    outer loop
      vertex   3.500000e+01 0.000000e+00 -5.725000e+01
      vertex   3.500000e+01 0.000000e+00 5.725000e+01
      vertex   -3.500000e+01 0.000000e+00 -5.725000e+01
    endloop
  endfacet
  facet normal 0.000000e+00 -1.000000e+00 0.000000e+00
    outer loop
      vertex   -3.500000e+01 0.000000e+00 -5.725000e+01
      vertex   3.500000e+01 0.000000e+00 5.725000e+01
      vertex   -3.500000e+01 0.000000e+00 5.725000e+01
    endloop
  endfacet
endsolid
