solid ASCII
  facet normal -9.807853e-01 -1.950903e-01 -0.000000e+00
    outer loop
      vertex   -2.247560e+01 2.463143e+01 4.000000e+00
      vertex   -2.247560e+01 2.463143e+01 0.000000e+00
      vertex   -2.235000e+01 2.400000e+01 4.000000e+00
    endloop
  endfacet
  facet normal -9.807853e-01 -1.950903e-01 -0.000000e+00
    outer loop
      vertex   -2.235000e+01 2.400000e+01 4.000000e+00
      vertex   -2.247560e+01 2.463143e+01 0.000000e+00
      vertex   -2.235000e+01 2.400000e+01 0.000000e+00
    endloop
  endfacet
  facet normal -9.807853e-01 1.950903e-01 0.000000e+00
    outer loop
      vertex   -2.235000e+01 2.400000e+01 4.000000e+00
      vertex   -2.235000e+01 2.400000e+01 0.000000e+00
      vertex   -2.247560e+01 2.336857e+01 4.000000e+00
    endloop
  endfacet
  facet normal -9.807853e-01 1.950903e-01 0.000000e+00
    outer loop
      vertex   -2.247560e+01 2.336857e+01 4.000000e+00
      vertex   -2.235000e+01 2.400000e+01 0.000000e+00
      vertex   -2.247560e+01 2.336857e+01 0.000000e+00
    endloop
  endfacet
  facet normal -8.314696e-01 5.555702e-01 0.000000e+00
    outer loop
      vertex   -2.247560e+01 2.336857e+01 4.000000e+00
      vertex   -2.247560e+01 2.336857e+01 0.000000e+00
      vertex   -2.283327e+01 2.283327e+01 4.000000e+00
    endloop
  endfacet
  facet normal -8.314696e-01 5.555702e-01 0.000000e+00
    outer loop
      vertex   -2.283327e+01 2.283327e+01 4.000000e+00
      vertex   -2.247560e+01 2.336857e+01 0.000000e+00
      vertex   -2.283327e+01 2.283327e+01 0.000000e+00
    endloop
  endfacet
  facet normal -5.555702e-01 8.314696e-01 0.000000e+00
    outer loop
      vertex   -2.283327e+01 2.283327e+01 4.000000e+00
      vertex   -2.283327e+01 2.283327e+01 0.000000e+00
      vertex   -2.336857e+01 2.247560e+01 4.000000e+00
    endloop
  endfacet
  facet normal -5.555702e-01 8.314696e-01 0.000000e+00
    outer loop
      vertex   -2.336857e+01 2.247560e+01 4.000000e+00
      vertex   -2.283327e+01 2.283327e+01 0.000000e+00
      vertex   -2.336857e+01 2.247560e+01 0.000000e+00
    endloop
  endfacet
  facet normal -1.950903e-01 9.807853e-01 0.000000e+00
    outer loop
      vertex   -2.336857e+01 2.247560e+01 4.000000e+00
      vertex   -2.336857e+01 2.247560e+01 0.000000e+00
      vertex   -2.400000e+01 2.235000e+01 4.000000e+00
    endloop
  endfacet
  facet normal -1.950903e-01 9.807853e-01 0.000000e+00
    outer loop
      vertex   -2.400000e+01 2.235000e+01 4.000000e+00
      vertex   -2.336857e+01 2.247560e+01 0.000000e+00
      vertex   -2.400000e+01 2.235000e+01 0.000000e+00
    endloop
  endfacet
  facet normal 1.950903e-01 9.807853e-01 0.000000e+00
    outer loop
      vertex   -2.400000e+01 2.235000e+01 4.000000e+00
      vertex   -2.400000e+01 2.235000e+01 0.000000e+00
      vertex   -2.463143e+01 2.247560e+01 4.000000e+00
    endloop
  endfacet
  facet normal 1.950903e-01 9.807853e-01 0.000000e+00
    outer loop
      vertex   -2.463143e+01 2.247560e+01 4.000000e+00
      vertex   -2.400000e+01 2.235000e+01 0.000000e+00
      vertex   -2.463143e+01 2.247560e+01 0.000000e+00
    endloop
  endfacet
  facet normal 5.555702e-01 8.314696e-01 0.000000e+00
    outer loop
      vertex   -2.463143e+01 2.247560e+01 4.000000e+00
      vertex   -2.463143e+01 2.247560e+01 0.000000e+00
      vertex   -2.516673e+01 2.283327e+01 4.000000e+00
    endloop
  endfacet
  facet normal 5.555702e-01 8.314696e-01 0.000000e+00
    outer loop
      vertex   -2.516673e+01 2.283327e+01 4.000000e+00
      vertex   -2.463143e+01 2.247560e+01 0.000000e+00
      vertex   -2.516673e+01 2.283327e+01 0.000000e+00
    endloop
  endfacet
  facet normal 8.314696e-01 5.555702e-01 0.000000e+00
    outer loop
      vertex   -2.516673e+01 2.283327e+01 4.000000e+00
      vertex   -2.516673e+01 2.283327e+01 0.000000e+00
      vertex   -2.552440e+01 2.336857e+01 4.000000e+00
    endloop
  endfacet
  facet normal 8.314696e-01 5.555702e-01 0.000000e+00
    outer loop
      vertex   -2.552440e+01 2.336857e+01 4.000000e+00
      vertex   -2.516673e+01 2.283327e+01 0.000000e+00
      vertex   -2.552440e+01 2.336857e+01 0.000000e+00
    endloop
  endfacet
  facet normal 9.807853e-01 1.950903e-01 0.000000e+00
    outer loop
      vertex   -2.552440e+01 2.336857e+01 4.000000e+00
      vertex   -2.552440e+01 2.336857e+01 0.000000e+00
      vertex   -2.565000e+01 2.400000e+01 4.000000e+00
    endloop
  endfacet
  facet normal 9.807853e-01 1.950903e-01 0.000000e+00
    outer loop
      vertex   -2.565000e+01 2.400000e+01 4.000000e+00
      vertex   -2.552440e+01 2.336857e+01 0.000000e+00
      vertex   -2.565000e+01 2.400000e+01 0.000000e+00
    endloop
  endfacet
  facet normal 9.807853e-01 -1.950903e-01 0.000000e+00
    outer loop
      vertex   -2.565000e+01 2.400000e+01 4.000000e+00
      vertex   -2.565000e+01 2.400000e+01 0.000000e+00
      vertex   -2.552440e+01 2.463143e+01 4.000000e+00
    endloop
  endfacet
  facet normal 9.807853e-01 -1.950903e-01 0.000000e+00
    outer loop
      vertex   -2.552440e+01 2.463143e+01 4.000000e+00
      vertex   -2.565000e+01 2.400000e+01 0.000000e+00
      vertex   -2.552440e+01 2.463143e+01 0.000000e+00
    endloop
  endfacet
  facet normal 8.314696e-01 -5.555702e-01 0.000000e+00
    outer loop
      vertex   -2.552440e+01 2.463143e+01 4.000000e+00
      vertex   -2.552440e+01 2.463143e+01 0.000000e+00
      vertex   -2.516673e+01 2.516673e+01 4.000000e+00
    endloop
  endfacet
  facet normal 8.314696e-01 -5.555702e-01 0.000000e+00
    outer loop
      vertex   -2.516673e+01 2.516673e+01 4.000000e+00
      vertex   -2.552440e+01 2.463143e+01 0.000000e+00
      vertex   -2.516673e+01 2.516673e+01 0.000000e+00
    endloop
  endfacet
  facet normal 5.555702e-01 -8.314696e-01 0.000000e+00
    outer loop
      vertex   -2.516673e+01 2.516673e+01 4.000000e+00
      vertex   -2.516673e+01 2.516673e+01 0.000000e+00
      vertex   -2.463143e+01 2.552440e+01 4.000000e+00
    endloop
  endfacet
  facet normal 5.555702e-01 -8.314696e-01 0.000000e+00
    outer loop
      vertex   -2.463143e+01 2.552440e+01 4.000000e+00
      vertex   -2.516673e+01 2.516673e+01 0.000000e+00
      vertex   -2.463143e+01 2.552440e+01 0.000000e+00
    endloop
  endfacet
  facet normal 1.950903e-01 -9.807853e-01 0.000000e+00
    outer loop
      vertex   -2.463143e+01 2.552440e+01 4.000000e+00
      vertex   -2.463143e+01 2.552440e+01 0.000000e+00
      vertex   -2.400000e+01 2.565000e+01 4.000000e+00
    endloop
  endfacet
  facet normal 1.950903e-01 -9.807853e-01 0.000000e+00
    outer loop
      vertex   -2.400000e+01 2.565000e+01 4.000000e+00
      vertex   -2.463143e+01 2.552440e+01 0.000000e+00
      vertex   -2.400000e+01 2.565000e+01 0.000000e+00
    endloop
  endfacet
  facet normal -1.950903e-01 -9.807853e-01 -0.000000e+00
    outer loop
      vertex   -2.400000e+01 2.565000e+01 4.000000e+00
      vertex   -2.400000e+01 2.565000e+01 0.000000e+00
      vertex   -2.336857e+01 2.552440e+01 4.000000e+00
    endloop
  endfacet
  facet normal -1.950903e-01 -9.807853e-01 -0.000000e+00
    outer loop
      vertex   -2.336857e+01 2.552440e+01 4.000000e+00
      vertex   -2.400000e+01 2.565000e+01 0.000000e+00
      vertex   -2.336857e+01 2.552440e+01 0.000000e+00
    endloop
  endfacet
  facet normal -5.555702e-01 -8.314696e-01 -0.000000e+00
    outer loop
      vertex   -2.336857e+01 2.552440e+01 4.000000e+00
      vertex   -2.336857e+01 2.552440e+01 0.000000e+00
      vertex   -2.283327e+01 2.516673e+01 4.000000e+00
    endloop
  endfacet
  facet normal -5.555702e-01 -8.314696e-01 -0.000000e+00
    outer loop
      vertex   -2.283327e+01 2.516673e+01 4.000000e+00
      vertex   -2.336857e+01 2.552440e+01 0.000000e+00
      vertex   -2.283327e+01 2.516673e+01 0.000000e+00
    endloop
  endfacet
  facet normal -8.314696e-01 -5.555702e-01 -0.000000e+00
    outer loop
      vertex   -2.283327e+01 2.516673e+01 4.000000e+00
      vertex   -2.283327e+01 2.516673e+01 0.000000e+00
      vertex   -2.247560e+01 2.463143e+01 4.000000e+00
    endloop
  endfacet
  facet normal -8.314696e-01 -5.555702e-01 -0.000000e+00
    outer loop
      vertex   -2.247560e+01 2.463143e+01 4.000000e+00
      vertex   -2.283327e+01 2.516673e+01 0.000000e+00
      vertex   -2.247560e+01 2.463143e+01 0.000000e+00
    endloop
  endfacet
  facet normal -9.807853e-01 -1.950903e-01 -0.000000e+00
    outer loop
      vertex   -2.247560e+01 -2.336857e+01 4.000000e+00
      vertex   -2.247560e+01 -2.336857e+01 0.000000e+00
      vertex   -2.235000e+01 -2.400000e+01 4.000000e+00
    endloop
  endfacet
  facet normal -9.807853e-01 -1.950903e-01 -0.000000e+00
    outer loop
      vertex   -2.235000e+01 -2.400000e+01 4.000000e+00
      vertex   -2.247560e+01 -2.336857e+01 0.000000e+00
      vertex   -2.235000e+01 -2.400000e+01 0.000000e+00
    endloop
  endfacet
  facet normal -9.807853e-01 1.950903e-01 0.000000e+00
    outer loop
      vertex   -2.235000e+01 -2.400000e+01 4.000000e+00
      vertex   -2.235000e+01 -2.400000e+01 0.000000e+00
      vertex   -2.247560e+01 -2.463143e+01 4.000000e+00
    endloop
  endfacet
  facet normal -9.807853e-01 1.950903e-01 0.000000e+00
    outer loop
      vertex   -2.247560e+01 -2.463143e+01 4.000000e+00
      vertex   -2.235000e+01 -2.400000e+01 0.000000e+00
      vertex   -2.247560e+01 -2.463143e+01 0.000000e+00
    endloop
  endfacet
  facet normal -8.314696e-01 5.555702e-01 0.000000e+00
    outer loop
      vertex   -2.247560e+01 -2.463143e+01 4.000000e+00
      vertex   -2.247560e+01 -2.463143e+01 0.000000e+00
      vertex   -2.283327e+01 -2.516673e+01 4.000000e+00
    endloop
  endfacet
  facet normal -8.314696e-01 5.555702e-01 0.000000e+00
    outer loop
      vertex   -2.283327e+01 -2.516673e+01 4.000000e+00
      vertex   -2.247560e+01 -2.463143e+01 0.000000e+00
      vertex   -2.283327e+01 -2.516673e+01 0.000000e+00
    endloop
  endfacet
  facet normal -5.555702e-01 8.314696e-01 0.000000e+00
    outer loop
      vertex   -2.283327e+01 -2.516673e+01 4.000000e+00
      vertex   -2.283327e+01 -2.516673e+01 0.000000e+00
      vertex   -2.336857e+01 -2.552440e+01 4.000000e+00
    endloop
  endfacet
  facet normal -5.555702e-01 8.314696e-01 0.000000e+00
    outer loop
      vertex   -2.336857e+01 -2.552440e+01 4.000000e+00
      vertex   -2.283327e+01 -2.516673e+01 0.000000e+00
      vertex   -2.336857e+01 -2.552440e+01 0.000000e+00
    endloop
  endfacet
  facet normal -1.950903e-01 9.807853e-01 0.000000e+00
    outer loop
      vertex   -2.336857e+01 -2.552440e+01 4.000000e+00
      vertex   -2.336857e+01 -2.552440e+01 0.000000e+00
      vertex   -2.400000e+01 -2.565000e+01 4.000000e+00
    endloop
  endfacet
  facet normal -1.950903e-01 9.807853e-01 0.000000e+00
    outer loop
      vertex   -2.400000e+01 -2.565000e+01 4.000000e+00
      vertex   -2.336857e+01 -2.552440e+01 0.000000e+00
      vertex   -2.400000e+01 -2.565000e+01 0.000000e+00
    endloop
  endfacet
  facet normal 1.950903e-01 9.807853e-01 0.000000e+00
    outer loop
      vertex   -2.400000e+01 -2.565000e+01 4.000000e+00
      vertex   -2.400000e+01 -2.565000e+01 0.000000e+00
      vertex   -2.463143e+01 -2.552440e+01 4.000000e+00
    endloop
  endfacet
  facet normal 1.950903e-01 9.807853e-01 0.000000e+00
    outer loop
      vertex   -2.463143e+01 -2.552440e+01 4.000000e+00
      vertex   -2.400000e+01 -2.565000e+01 0.000000e+00
      vertex   -2.463143e+01 -2.552440e+01 0.000000e+00
    endloop
  endfacet
  facet normal 5.555702e-01 8.314696e-01 0.000000e+00
    outer loop
      vertex   -2.463143e+01 -2.552440e+01 4.000000e+00
      vertex   -2.463143e+01 -2.552440e+01 0.000000e+00
      vertex   -2.516673e+01 -2.516673e+01 4.000000e+00
    endloop
  endfacet
  facet normal 5.555702e-01 8.314696e-01 0.000000e+00
    outer loop
      vertex   -2.516673e+01 -2.516673e+01 4.000000e+00
      vertex   -2.463143e+01 -2.552440e+01 0.000000e+00
      vertex   -2.516673e+01 -2.516673e+01 0.000000e+00
    endloop
  endfacet
  facet normal 8.314696e-01 5.555702e-01 0.000000e+00
    outer loop
      vertex   -2.516673e+01 -2.516673e+01 4.000000e+00
      vertex   -2.516673e+01 -2.516673e+01 0.000000e+00
      vertex   -2.552440e+01 -2.463143e+01 4.000000e+00
    endloop
  endfacet
  facet normal 8.314696e-01 5.555702e-01 0.000000e+00
    outer loop
      vertex   -2.552440e+01 -2.463143e+01 4.000000e+00
      vertex   -2.516673e+01 -2.516673e+01 0.000000e+00
      vertex   -2.552440e+01 -2.463143e+01 0.000000e+00
    endloop
  endfacet
  facet normal 9.807853e-01 1.950903e-01 0.000000e+00
    outer loop
      vertex   -2.552440e+01 -2.463143e+01 4.000000e+00
      vertex   -2.552440e+01 -2.463143e+01 0.000000e+00
      vertex   -2.565000e+01 -2.400000e+01 4.000000e+00
    endloop
  endfacet
  facet normal 9.807853e-01 1.950903e-01 0.000000e+00
    outer loop
      vertex   -2.565000e+01 -2.400000e+01 4.000000e+00
      vertex   -2.552440e+01 -2.463143e+01 0.000000e+00
      vertex   -2.565000e+01 -2.400000e+01 0.000000e+00
    endloop
  endfacet
  facet normal 9.807853e-01 -1.950903e-01 0.000000e+00
    outer loop
      vertex   -2.565000e+01 -2.400000e+01 4.000000e+00
      vertex   -2.565000e+01 -2.400000e+01 0.000000e+00
      vertex   -2.552440e+01 -2.336857e+01 4.000000e+00
    endloop
  endfacet
  facet normal 9.807853e-01 -1.950903e-01 0.000000e+00
    outer loop
      vertex   -2.552440e+01 -2.336857e+01 4.000000e+00
      vertex   -2.565000e+01 -2.400000e+01 0.000000e+00
      vertex   -2.552440e+01 -2.336857e+01 0.000000e+00
    endloop
  endfacet
  facet normal 8.314696e-01 -5.555702e-01 0.000000e+00
    outer loop
      vertex   -2.552440e+01 -2.336857e+01 4.000000e+00
      vertex   -2.552440e+01 -2.336857e+01 0.000000e+00
      vertex   -2.516673e+01 -2.283327e+01 4.000000e+00
    endloop
  endfacet
  facet normal 8.314696e-01 -5.555702e-01 0.000000e+00
    outer loop
      vertex   -2.516673e+01 -2.283327e+01 4.000000e+00
      vertex   -2.552440e+01 -2.336857e+01 0.000000e+00
      vertex   -2.516673e+01 -2.283327e+01 0.000000e+00
    endloop
  endfacet
  facet normal 5.555702e-01 -8.314696e-01 0.000000e+00
    outer loop
      vertex   -2.516673e+01 -2.283327e+01 4.000000e+00
      vertex   -2.516673e+01 -2.283327e+01 0.000000e+00
      vertex   -2.463143e+01 -2.247560e+01 4.000000e+00
    endloop
  endfacet
  facet normal 5.555702e-01 -8.314696e-01 0.000000e+00
    outer loop
      vertex   -2.463143e+01 -2.247560e+01 4.000000e+00
      vertex   -2.516673e+01 -2.283327e+01 0.000000e+00
      vertex   -2.463143e+01 -2.247560e+01 0.000000e+00
    endloop
  endfacet
  facet normal 1.950903e-01 -9.807853e-01 0.000000e+00
    outer loop
      vertex   -2.463143e+01 -2.247560e+01 4.000000e+00
      vertex   -2.463143e+01 -2.247560e+01 0.000000e+00
      vertex   -2.400000e+01 -2.235000e+01 4.000000e+00
    endloop
  endfacet
  facet normal 1.950903e-01 -9.807853e-01 0.000000e+00
    outer loop
      vertex   -2.400000e+01 -2.235000e+01 4.000000e+00
      vertex   -2.463143e+01 -2.247560e+01 0.000000e+00
      vertex   -2.400000e+01 -2.235000e+01 0.000000e+00
    endloop
  endfacet
  facet normal -1.950903e-01 -9.807853e-01 -0.000000e+00
    outer loop
      vertex   -2.400000e+01 -2.235000e+01 4.000000e+00
      vertex   -2.400000e+01 -2.235000e+01 0.000000e+00
      vertex   -2.336857e+01 -2.247560e+01 4.000000e+00
    endloop
  endfacet
  facet normal -1.950903e-01 -9.807853e-01 -0.000000e+00
    outer loop
      vertex   -2.336857e+01 -2.247560e+01 4.000000e+00
      vertex   -2.400000e+01 -2.235000e+01 0.000000e+00
      vertex   -2.336857e+01 -2.247560e+01 0.000000e+00
    endloop
  endfacet
  facet normal -5.555702e-01 -8.314696e-01 -0.000000e+00
    outer loop
      vertex   -2.336857e+01 -2.247560e+01 4.000000e+00
      vertex   -2.336857e+01 -2.247560e+01 0.000000e+00
      vertex   -2.283327e+01 -2.283327e+01 4.000000e+00
    endloop
  endfacet
  facet normal -5.555702e-01 -8.314696e-01 -0.000000e+00
    outer loop
      vertex   -2.283327e+01 -2.283327e+01 4.000000e+00
      vertex   -2.336857e+01 -2.247560e+01 0.000000e+00
      vertex   -2.283327e+01 -2.283327e+01 0.000000e+00
    endloop
  endfacet
  facet normal -8.314696e-01 -5.555702e-01 -0.000000e+00
    outer loop
      vertex   -2.283327e+01 -2.283327e+01 4.000000e+00
      vertex   -2.283327e+01 -2.283327e+01 0.000000e+00
      vertex   -2.247560e+01 -2.336857e+01 4.000000e+00
    endloop
  endfacet
  facet normal -8.314696e-01 -5.555702e-01 -0.000000e+00
    outer loop
      vertex   -2.247560e+01 -2.336857e+01 4.000000e+00
      vertex   -2.283327e+01 -2.283327e+01 0.000000e+00
      vertex   -2.247560e+01 -2.336857e+01 0.000000e+00
    endloop
  endfacet
  facet normal -9.807853e-01 -1.950903e-01 -0.000000e+00
    outer loop
      vertex   2.552440e+01 -2.336857e+01 4.000000e+00
      vertex   2.552440e+01 -2.336857e+01 0.000000e+00
      vertex   2.565000e+01 -2.400000e+01 4.000000e+00
    endloop
  endfacet
  facet normal -9.807853e-01 -1.950903e-01 -8.711123e-16
    outer loop
      vertex   2.565000e+01 -2.400000e+01 4.000000e+00
      vertex   2.552440e+01 -2.336857e+01 0.000000e+00
      vertex   2.565000e+01 -2.400000e+01 0.000000e+00
    endloop
  endfacet
  facet normal -9.807853e-01 1.950903e-01 -8.711123e-16
    outer loop
      vertex   2.565000e+01 -2.400000e+01 4.000000e+00
      vertex   2.565000e+01 -2.400000e+01 0.000000e+00
      vertex   2.552440e+01 -2.463143e+01 4.000000e+00
    endloop
  endfacet
  facet normal -9.807853e-01 1.950903e-01 0.000000e+00
    outer loop
      vertex   2.552440e+01 -2.463143e+01 4.000000e+00
      vertex   2.565000e+01 -2.400000e+01 0.000000e+00
      vertex   2.552440e+01 -2.463143e+01 0.000000e+00
    endloop
  endfacet
  facet normal -8.314696e-01 5.555702e-01 0.000000e+00
    outer loop
      vertex   2.552440e+01 -2.463143e+01 4.000000e+00
      vertex   2.552440e+01 -2.463143e+01 0.000000e+00
      vertex   2.516673e+01 -2.516673e+01 4.000000e+00
    endloop
  endfacet
  facet normal -8.314696e-01 5.555702e-01 0.000000e+00
    outer loop
      vertex   2.516673e+01 -2.516673e+01 4.000000e+00
      vertex   2.552440e+01 -2.463143e+01 0.000000e+00
      vertex   2.516673e+01 -2.516673e+01 0.000000e+00
    endloop
  endfacet
  facet normal -5.555702e-01 8.314696e-01 0.000000e+00
    outer loop
      vertex   2.516673e+01 -2.516673e+01 4.000000e+00
      vertex   2.516673e+01 -2.516673e+01 0.000000e+00
      vertex   2.463143e+01 -2.552440e+01 4.000000e+00
    endloop
  endfacet
  facet normal -5.555702e-01 8.314696e-01 0.000000e+00
    outer loop
      vertex   2.463143e+01 -2.552440e+01 4.000000e+00
      vertex   2.516673e+01 -2.516673e+01 0.000000e+00
      vertex   2.463143e+01 -2.552440e+01 0.000000e+00
    endloop
  endfacet
  facet normal -1.950903e-01 9.807853e-01 0.000000e+00
    outer loop
      vertex   2.463143e+01 -2.552440e+01 4.000000e+00
      vertex   2.463143e+01 -2.552440e+01 0.000000e+00
      vertex   2.400000e+01 -2.565000e+01 4.000000e+00
    endloop
  endfacet
  facet normal -1.950903e-01 9.807853e-01 0.000000e+00
    outer loop
      vertex   2.400000e+01 -2.565000e+01 4.000000e+00
      vertex   2.463143e+01 -2.552440e+01 0.000000e+00
      vertex   2.400000e+01 -2.565000e+01 0.000000e+00
    endloop
  endfacet
  facet normal 1.950903e-01 9.807853e-01 0.000000e+00
    outer loop
      vertex   2.400000e+01 -2.565000e+01 4.000000e+00
      vertex   2.400000e+01 -2.565000e+01 0.000000e+00
      vertex   2.336857e+01 -2.552440e+01 4.000000e+00
    endloop
  endfacet
  facet normal 1.950903e-01 9.807853e-01 0.000000e+00
    outer loop
      vertex   2.336857e+01 -2.552440e+01 4.000000e+00
      vertex   2.400000e+01 -2.565000e+01 0.000000e+00
      vertex   2.336857e+01 -2.552440e+01 0.000000e+00
    endloop
  endfacet
  facet normal 5.555702e-01 8.314696e-01 0.000000e+00
    outer loop
      vertex   2.336857e+01 -2.552440e+01 4.000000e+00
      vertex   2.336857e+01 -2.552440e+01 0.000000e+00
      vertex   2.283327e+01 -2.516673e+01 4.000000e+00
    endloop
  endfacet
  facet normal 5.555702e-01 8.314696e-01 0.000000e+00
    outer loop
      vertex   2.283327e+01 -2.516673e+01 4.000000e+00
      vertex   2.336857e+01 -2.552440e+01 0.000000e+00
      vertex   2.283327e+01 -2.516673e+01 0.000000e+00
    endloop
  endfacet
  facet normal 8.314696e-01 5.555702e-01 0.000000e+00
    outer loop
      vertex   2.283327e+01 -2.516673e+01 4.000000e+00
      vertex   2.283327e+01 -2.516673e+01 0.000000e+00
      vertex   2.247560e+01 -2.463143e+01 4.000000e+00
    endloop
  endfacet
  facet normal 8.314696e-01 5.555702e-01 0.000000e+00
    outer loop
      vertex   2.247560e+01 -2.463143e+01 4.000000e+00
      vertex   2.283327e+01 -2.516673e+01 0.000000e+00
      vertex   2.247560e+01 -2.463143e+01 0.000000e+00
    endloop
  endfacet
  facet normal 9.807853e-01 1.950903e-01 0.000000e+00
    outer loop
      vertex   2.247560e+01 -2.463143e+01 4.000000e+00
      vertex   2.247560e+01 -2.463143e+01 0.000000e+00
      vertex   2.235000e+01 -2.400000e+01 4.000000e+00
    endloop
  endfacet
  facet normal 9.807853e-01 1.950903e-01 0.000000e+00
    outer loop
      vertex   2.235000e+01 -2.400000e+01 4.000000e+00
      vertex   2.247560e+01 -2.463143e+01 0.000000e+00
      vertex   2.235000e+01 -2.400000e+01 0.000000e+00
    endloop
  endfacet
  facet normal 9.807853e-01 -1.950903e-01 0.000000e+00
    outer loop
      vertex   2.235000e+01 -2.400000e+01 4.000000e+00
      vertex   2.235000e+01 -2.400000e+01 0.000000e+00
      vertex   2.247560e+01 -2.336857e+01 4.000000e+00
    endloop
  endfacet
  facet normal 9.807853e-01 -1.950903e-01 0.000000e+00
    outer loop
      vertex   2.247560e+01 -2.336857e+01 4.000000e+00
      vertex   2.235000e+01 -2.400000e+01 0.000000e+00
      vertex   2.247560e+01 -2.336857e+01 0.000000e+00
    endloop
  endfacet
  facet normal 8.314696e-01 -5.555702e-01 0.000000e+00
    outer loop
      vertex   2.247560e+01 -2.336857e+01 4.000000e+00
      vertex   2.247560e+01 -2.336857e+01 0.000000e+00
      vertex   2.283327e+01 -2.283327e+01 4.000000e+00
    endloop
  endfacet
  facet normal 8.314696e-01 -5.555702e-01 0.000000e+00
    outer loop
      vertex   2.283327e+01 -2.283327e+01 4.000000e+00
      vertex   2.247560e+01 -2.336857e+01 0.000000e+00
      vertex   2.283327e+01 -2.283327e+01 0.000000e+00
    endloop
  endfacet
  facet normal 5.555702e-01 -8.314696e-01 0.000000e+00
    outer loop
      vertex   2.283327e+01 -2.283327e+01 4.000000e+00
      vertex   2.283327e+01 -2.283327e+01 0.000000e+00
      vertex   2.336857e+01 -2.247560e+01 4.000000e+00
    endloop
  endfacet
  facet normal 5.555702e-01 -8.314696e-01 0.000000e+00
    outer loop
      vertex   2.336857e+01 -2.247560e+01 4.000000e+00
      vertex   2.283327e+01 -2.283327e+01 0.000000e+00
      vertex   2.336857e+01 -2.247560e+01 0.000000e+00
    endloop
  endfacet
  facet normal 1.950903e-01 -9.807853e-01 0.000000e+00
    outer loop
      vertex   2.336857e+01 -2.247560e+01 4.000000e+00
      vertex   2.336857e+01 -2.247560e+01 0.000000e+00
      vertex   2.400000e+01 -2.235000e+01 4.000000e+00
    endloop
  endfacet
  facet normal 1.950903e-01 -9.807853e-01 0.000000e+00
    outer loop
      vertex   2.400000e+01 -2.235000e+01 4.000000e+00
      vertex   2.336857e+01 -2.247560e+01 0.000000e+00
      vertex   2.400000e+01 -2.235000e+01 0.000000e+00
    endloop
  endfacet
  facet normal -1.950903e-01 -9.807853e-01 -0.000000e+00
    outer loop
      vertex   2.400000e+01 -2.235000e+01 4.000000e+00
      vertex   2.400000e+01 -2.235000e+01 0.000000e+00
      vertex   2.463143e+01 -2.247560e+01 4.000000e+00
    endloop
  endfacet
  facet normal -1.950903e-01 -9.807853e-01 -0.000000e+00
    outer loop
      vertex   2.463143e+01 -2.247560e+01 4.000000e+00
      vertex   2.400000e+01 -2.235000e+01 0.000000e+00
      vertex   2.463143e+01 -2.247560e+01 0.000000e+00
    endloop
  endfacet
  facet normal -5.555702e-01 -8.314696e-01 -0.000000e+00
    outer loop
      vertex   2.463143e+01 -2.247560e+01 4.000000e+00
      vertex   2.463143e+01 -2.247560e+01 0.000000e+00
      vertex   2.516673e+01 -2.283327e+01 4.000000e+00
    endloop
  endfacet
  facet normal -5.555702e-01 -8.314696e-01 -0.000000e+00
    outer loop
      vertex   2.516673e+01 -2.283327e+01 4.000000e+00
      vertex   2.463143e+01 -2.247560e+01 0.000000e+00
      vertex   2.516673e+01 -2.283327e+01 0.000000e+00
    endloop
  endfacet
  facet normal -8.314696e-01 -5.555702e-01 -0.000000e+00
    outer loop
      vertex   2.516673e+01 -2.283327e+01 4.000000e+00
      vertex   2.516673e+01 -2.283327e+01 0.000000e+00
      vertex   2.552440e+01 -2.336857e+01 4.000000e+00
    endloop
  endfacet
  facet normal -8.314696e-01 -5.555702e-01 -0.000000e+00
    outer loop
      vertex   2.552440e+01 -2.336857e+01 4.000000e+00
      vertex   2.516673e+01 -2.283327e+01 0.000000e+00
      vertex   2.552440e+01 -2.336857e+01 0.000000e+00
    endloop
  endfacet
  facet normal -9.807853e-01 -1.950903e-01 -0.000000e+00
    outer loop
      vertex   2.552440e+01 2.463143e+01 4.000000e+00
      vertex   2.552440e+01 2.463143e+01 0.000000e+00
      vertex   2.565000e+01 2.400000e+01 4.000000e+00
    endloop
  endfacet
  facet normal -9.807853e-01 -1.950903e-01 -0.000000e+00
    outer loop
      vertex   2.565000e+01 2.400000e+01 4.000000e+00
      vertex   2.552440e+01 2.463143e+01 0.000000e+00
      vertex   2.565000e+01 2.400000e+01 0.000000e+00
    endloop
  endfacet
  facet normal -9.807853e-01 1.950903e-01 0.000000e+00
    outer loop
      vertex   2.565000e+01 2.400000e+01 4.000000e+00
      vertex   2.565000e+01 2.400000e+01 0.000000e+00
      vertex   2.552440e+01 2.336857e+01 4.000000e+00
    endloop
  endfacet
  facet normal -9.807853e-01 1.950903e-01 0.000000e+00
    outer loop
      vertex   2.552440e+01 2.336857e+01 4.000000e+00
      vertex   2.565000e+01 2.400000e+01 0.000000e+00
      vertex   2.552440e+01 2.336857e+01 0.000000e+00
    endloop
  endfacet
  facet normal -8.314696e-01 5.555702e-01 0.000000e+00
    outer loop
      vertex   2.552440e+01 2.336857e+01 4.000000e+00
      vertex   2.552440e+01 2.336857e+01 0.000000e+00
      vertex   2.516673e+01 2.283327e+01 4.000000e+00
    endloop
  endfacet
  facet normal -8.314696e-01 5.555702e-01 0.000000e+00
    outer loop
      vertex   2.516673e+01 2.283327e+01 4.000000e+00
      vertex   2.552440e+01 2.336857e+01 0.000000e+00
      vertex   2.516673e+01 2.283327e+01 0.000000e+00
    endloop
  endfacet
  facet normal -5.555702e-01 8.314696e-01 0.000000e+00
    outer loop
      vertex   2.516673e+01 2.283327e+01 4.000000e+00
      vertex   2.516673e+01 2.283327e+01 0.000000e+00
      vertex   2.463143e+01 2.247560e+01 4.000000e+00
    endloop
  endfacet
  facet normal -5.555702e-01 8.314696e-01 0.000000e+00
    outer loop
      vertex   2.463143e+01 2.247560e+01 4.000000e+00
      vertex   2.516673e+01 2.283327e+01 0.000000e+00
      vertex   2.463143e+01 2.247560e+01 0.000000e+00
    endloop
  endfacet
  facet normal -1.950903e-01 9.807853e-01 0.000000e+00
    outer loop
      vertex   2.463143e+01 2.247560e+01 4.000000e+00
      vertex   2.463143e+01 2.247560e+01 0.000000e+00
      vertex   2.400000e+01 2.235000e+01 4.000000e+00
    endloop
  endfacet
  facet normal -1.950903e-01 9.807853e-01 0.000000e+00
    outer loop
      vertex   2.400000e+01 2.235000e+01 4.000000e+00
      vertex   2.463143e+01 2.247560e+01 0.000000e+00
      vertex   2.400000e+01 2.235000e+01 0.000000e+00
    endloop
  endfacet
  facet normal 1.950903e-01 9.807853e-01 0.000000e+00
    outer loop
      vertex   2.400000e+01 2.235000e+01 4.000000e+00
      vertex   2.400000e+01 2.235000e+01 0.000000e+00
      vertex   2.336857e+01 2.247560e+01 4.000000e+00
    endloop
  endfacet
  facet normal 1.950903e-01 9.807853e-01 0.000000e+00
    outer loop
      vertex   2.336857e+01 2.247560e+01 4.000000e+00
      vertex   2.400000e+01 2.235000e+01 0.000000e+00
      vertex   2.336857e+01 2.247560e+01 0.000000e+00
    endloop
  endfacet
  facet normal 5.555702e-01 8.314696e-01 0.000000e+00
    outer loop
      vertex   2.336857e+01 2.247560e+01 4.000000e+00
      vertex   2.336857e+01 2.247560e+01 0.000000e+00
      vertex   2.283327e+01 2.283327e+01 4.000000e+00
    endloop
  endfacet
  facet normal 5.555702e-01 8.314696e-01 0.000000e+00
    outer loop
      vertex   2.283327e+01 2.283327e+01 4.000000e+00
      vertex   2.336857e+01 2.247560e+01 0.000000e+00
      vertex   2.283327e+01 2.283327e+01 0.000000e+00
    endloop
  endfacet
  facet normal 8.314696e-01 5.555702e-01 0.000000e+00
    outer loop
      vertex   2.283327e+01 2.283327e+01 4.000000e+00
      vertex   2.283327e+01 2.283327e+01 0.000000e+00
      vertex   2.247560e+01 2.336857e+01 4.000000e+00
    endloop
  endfacet
  facet normal 8.314696e-01 5.555702e-01 0.000000e+00
    outer loop
      vertex   2.247560e+01 2.336857e+01 4.000000e+00
      vertex   2.283327e+01 2.283327e+01 0.000000e+00
      vertex   2.247560e+01 2.336857e+01 0.000000e+00
    endloop
  endfacet
  facet normal 9.807853e-01 1.950903e-01 0.000000e+00
    outer loop
      vertex   2.247560e+01 2.336857e+01 4.000000e+00
      vertex   2.247560e+01 2.336857e+01 0.000000e+00
      vertex   2.235000e+01 2.400000e+01 4.000000e+00
    endloop
  endfacet
  facet normal 9.807853e-01 1.950903e-01 0.000000e+00
    outer loop
      vertex   2.235000e+01 2.400000e+01 4.000000e+00
      vertex   2.247560e+01 2.336857e+01 0.000000e+00
      vertex   2.235000e+01 2.400000e+01 0.000000e+00
    endloop
  endfacet
  facet normal 9.807853e-01 -1.950903e-01 0.000000e+00
    outer loop
      vertex   2.235000e+01 2.400000e+01 4.000000e+00
      vertex   2.235000e+01 2.400000e+01 0.000000e+00
      vertex   2.247560e+01 2.463143e+01 4.000000e+00
    endloop
  endfacet
  facet normal 9.807853e-01 -1.950903e-01 0.000000e+00
    outer loop
      vertex   2.247560e+01 2.463143e+01 4.000000e+00
      vertex   2.235000e+01 2.400000e+01 0.000000e+00
      vertex   2.247560e+01 2.463143e+01 0.000000e+00
    endloop
  endfacet
  facet normal 8.314696e-01 -5.555702e-01 0.000000e+00
    outer loop
      vertex   2.247560e+01 2.463143e+01 4.000000e+00
      vertex   2.247560e+01 2.463143e+01 0.000000e+00
      vertex   2.283327e+01 2.516673e+01 4.000000e+00
    endloop
  endfacet
  facet normal 8.314696e-01 -5.555702e-01 0.000000e+00
    outer loop
      vertex   2.283327e+01 2.516673e+01 4.000000e+00
      vertex   2.247560e+01 2.463143e+01 0.000000e+00
      vertex   2.283327e+01 2.516673e+01 0.000000e+00
    endloop
  endfacet
  facet normal 5.555702e-01 -8.314696e-01 0.000000e+00
    outer loop
      vertex   2.283327e+01 2.516673e+01 4.000000e+00
      vertex   2.283327e+01 2.516673e+01 0.000000e+00
      vertex   2.336857e+01 2.552440e+01 4.000000e+00
    endloop
  endfacet
  facet normal 5.555702e-01 -8.314696e-01 0.000000e+00
    outer loop
      vertex   2.336857e+01 2.552440e+01 4.000000e+00
      vertex   2.283327e+01 2.516673e+01 0.000000e+00
      vertex   2.336857e+01 2.552440e+01 0.000000e+00
    endloop
  endfacet
  facet normal 1.950903e-01 -9.807853e-01 0.000000e+00
    outer loop
      vertex   2.336857e+01 2.552440e+01 4.000000e+00
      vertex   2.336857e+01 2.552440e+01 0.000000e+00
      vertex   2.400000e+01 2.565000e+01 4.000000e+00
    endloop
  endfacet
  facet normal 1.950903e-01 -9.807853e-01 0.000000e+00
    outer loop
      vertex   2.400000e+01 2.565000e+01 4.000000e+00
      vertex   2.336857e+01 2.552440e+01 0.000000e+00
      vertex   2.400000e+01 2.565000e+01 0.000000e+00
    endloop
  endfacet
  facet normal -1.950903e-01 -9.807853e-01 -0.000000e+00
    outer loop
      vertex   2.400000e+01 2.565000e+01 4.000000e+00
      vertex   2.400000e+01 2.565000e+01 0.000000e+00
      vertex   2.463143e+01 2.552440e+01 4.000000e+00
    endloop
  endfacet
  facet normal -1.950903e-01 -9.807853e-01 -0.000000e+00
    outer loop
      vertex   2.463143e+01 2.552440e+01 4.000000e+00
      vertex   2.400000e+01 2.565000e+01 0.000000e+00
      vertex   2.463143e+01 2.552440e+01 0.000000e+00
    endloop
  endfacet
  facet normal -5.555702e-01 -8.314696e-01 -0.000000e+00
    outer loop
      vertex   2.463143e+01 2.552440e+01 4.000000e+00
      vertex   2.463143e+01 2.552440e+01 0.000000e+00
      vertex   2.516673e+01 2.516673e+01 4.000000e+00
    endloop
  endfacet
  facet normal -5.555702e-01 -8.314696e-01 -0.000000e+00
    outer loop
      vertex   2.516673e+01 2.516673e+01 4.000000e+00
      vertex   2.463143e+01 2.552440e+01 0.000000e+00
      vertex   2.516673e+01 2.516673e+01 0.000000e+00
    endloop
  endfacet
  facet normal -8.314696e-01 -5.555702e-01 -0.000000e+00
    outer loop
      vertex   2.516673e+01 2.516673e+01 4.000000e+00
      vertex   2.516673e+01 2.516673e+01 0.000000e+00
      vertex   2.552440e+01 2.463143e+01 4.000000e+00
    endloop
  endfacet
  facet normal -8.314696e-01 -5.555702e-01 -0.000000e+00
    outer loop
      vertex   2.552440e+01 2.463143e+01 4.000000e+00
      vertex   2.516673e+01 2.516673e+01 0.000000e+00
      vertex   2.552440e+01 2.463143e+01 0.000000e+00
    endloop
  endfacet
  facet normal -1.000000e+00 -2.960595e-16 2.629536e-31
    outer loop
      vertex   -3.000000e+01 3.000000e+01 0.000000e+00
      vertex   -3.000000e+01 -3.000000e+01 0.000000e+00
      vertex   -3.000000e+01 3.000000e+01 4.000000e+00
    endloop
  endfacet
  facet normal -1.000000e+00 -2.960595e-16 0.000000e+00
    outer loop
      vertex   -3.000000e+01 3.000000e+01 4.000000e+00
      vertex   -3.000000e+01 -3.000000e+01 0.000000e+00
      vertex   -3.000000e+01 -3.000000e+01 4.000000e+00
    endloop
  endfacet
  facet normal 0.000000e+00 1.000000e+00 -8.881784e-16
    outer loop
      vertex   3.000000e+01 3.000000e+01 0.000000e+00
      vertex   -3.000000e+01 3.000000e+01 0.000000e+00
      vertex   3.000000e+01 3.000000e+01 4.000000e+00
    endloop
  endfacet
  facet normal 0.000000e+00 1.000000e+00 -8.881784e-16
    outer loop
      vertex   3.000000e+01 3.000000e+01 4.000000e+00
      vertex   -3.000000e+01 3.000000e+01 0.000000e+00
      vertex   -3.000000e+01 3.000000e+01 4.000000e+00
    endloop
  endfacet
  facet normal 1.000000e+00 0.000000e+00 0.000000e+00
    outer loop
      vertex   3.000000e+01 -3.000000e+01 0.000000e+00
      vertex   3.000000e+01 3.000000e+01 0.000000e+00
      vertex   3.000000e+01 -3.000000e+01 4.000000e+00
    endloop
  endfacet
  facet normal 1.000000e+00 -0.000000e+00 0.000000e+00
    outer loop
      vertex   3.000000e+01 -3.000000e+01 4.000000e+00
      vertex   3.000000e+01 3.000000e+01 0.000000e+00
      vertex   3.000000e+01 3.000000e+01 4.000000e+00
    endloop
  endfacet
  facet normal 2.368476e-16 -1.000000e+00 0.000000e+00
    outer loop
      vertex   -3.000000e+01 -3.000000e+01 0.000000e+00
      vertex   3.000000e+01 -3.000000e+01 0.000000e+00
      vertex   -3.000000e+01 -3.000000e+01 4.000000e+00
    endloop
  endfacet
  facet normal 2.368476e-16 -1.000000e+00 0.000000e+00
    outer loop
      vertex   -3.000000e+01 -3.000000e+01 4.000000e+00
      vertex   3.000000e+01 -3.000000e+01 0.000000e+00
      vertex   3.000000e+01 -3.000000e+01 4.000000e+00
    endloop
  endfacet
  facet normal 0.000000e+00 0.000000e+00 1.000000e+00
    outer loop
      vertex   3.000000e+01 -3.000000e+01 4.000000e+00
      vertex   -2.336857e+01 -2.552440e+01 4.000000e+00
      vertex   -3.000000e+01 -3.000000e+01 4.000000e+00
    endloop
  endfacet
  facet normal 0.000000e+00 0.000000e+00 1.000000e+00
    outer loop
      vertex   -3.000000e+01 -3.000000e+01 4.000000e+00
      vertex   -2.336857e+01 -2.552440e+01 4.000000e+00
      vertex   -2.400000e+01 -2.565000e+01 4.000000e+00
    endloop
  endfacet
  facet normal 0.000000e+00 0.000000e+00 1.000000e+00
    outer loop
      vertex   -3.000000e+01 -3.000000e+01 4.000000e+00
      vertex   -2.400000e+01 -2.565000e+01 4.000000e+00
      vertex   -2.463143e+01 -2.552440e+01 4.000000e+00
    endloop
  endfacet
  facet normal 0.000000e+00 0.000000e+00 1.000000e+00
    outer loop
      vertex   3.000000e+01 3.000000e+01 4.000000e+00
      vertex   2.552440e+01 2.336857e+01 4.000000e+00
      vertex   3.000000e+01 -3.000000e+01 4.000000e+00
    endloop
  endfacet
  facet normal 0.000000e+00 0.000000e+00 1.000000e+00
    outer loop
      vertex   3.000000e+01 -3.000000e+01 4.000000e+00
      vertex   2.552440e+01 2.336857e+01 4.000000e+00
      vertex   2.552440e+01 -2.336857e+01 4.000000e+00
    endloop
  endfacet
  facet normal 0.000000e+00 0.000000e+00 1.000000e+00
    outer loop
      vertex   3.000000e+01 -3.000000e+01 4.000000e+00
      vertex   2.552440e+01 -2.336857e+01 4.000000e+00
      vertex   2.565000e+01 -2.400000e+01 4.000000e+00
    endloop
  endfacet
  facet normal -0.000000e+00 0.000000e+00 1.000000e+00
    outer loop
      vertex   -3.000000e+01 3.000000e+01 4.000000e+00
      vertex   2.336857e+01 2.552440e+01 4.000000e+00
      vertex   3.000000e+01 3.000000e+01 4.000000e+00
    endloop
  endfacet
  facet normal 0.000000e+00 0.000000e+00 1.000000e+00
    outer loop
      vertex   3.000000e+01 3.000000e+01 4.000000e+00
      vertex   2.336857e+01 2.552440e+01 4.000000e+00
      vertex   2.400000e+01 2.565000e+01 4.000000e+00
    endloop
  endfacet
  facet normal 0.000000e+00 0.000000e+00 1.000000e+00
    outer loop
      vertex   3.000000e+01 3.000000e+01 4.000000e+00
      vertex   2.400000e+01 2.565000e+01 4.000000e+00
      vertex   2.463143e+01 2.552440e+01 4.000000e+00
    endloop
  endfacet
  facet normal 0.000000e+00 -0.000000e+00 1.000000e+00
    outer loop
      vertex   -3.000000e+01 -3.000000e+01 4.000000e+00
      vertex   -2.552440e+01 2.336857e+01 4.000000e+00
      vertex   -3.000000e+01 3.000000e+01 4.000000e+00
    endloop
  endfacet
  facet normal 0.000000e+00 0.000000e+00 1.000000e+00
    outer loop
      vertex   -3.000000e+01 3.000000e+01 4.000000e+00
      vertex   -2.552440e+01 2.336857e+01 4.000000e+00
      vertex   -2.565000e+01 2.400000e+01 4.000000e+00
    endloop
  endfacet
  facet normal 0.000000e+00 0.000000e+00 1.000000e+00
    outer loop
      vertex   -3.000000e+01 3.000000e+01 4.000000e+00
      vertex   -2.565000e+01 2.400000e+01 4.000000e+00
      vertex   -2.552440e+01 2.463143e+01 4.000000e+00
    endloop
  endfacet
  facet normal -0.000000e+00 0.000000e+00 1.000000e+00
    outer loop
      vertex   2.552440e+01 2.463143e+01 4.000000e+00
      vertex   2.565000e+01 2.400000e+01 4.000000e+00
      vertex   3.000000e+01 3.000000e+01 4.000000e+00
    endloop
  endfacet
  facet normal 0.000000e+00 0.000000e+00 1.000000e+00
    outer loop
      vertex   3.000000e+01 3.000000e+01 4.000000e+00
      vertex   2.565000e+01 2.400000e+01 4.000000e+00
      vertex   2.552440e+01 2.336857e+01 4.000000e+00
    endloop
  endfacet
  facet normal 0.000000e+00 -0.000000e+00 1.000000e+00
    outer loop
      vertex   2.552440e+01 -2.336857e+01 4.000000e+00
      vertex   2.552440e+01 2.336857e+01 4.000000e+00
      vertex   2.516673e+01 -2.283327e+01 4.000000e+00
    endloop
  endfacet
  facet normal 0.000000e+00 0.000000e+00 1.000000e+00
    outer loop
      vertex   2.516673e+01 -2.283327e+01 4.000000e+00
      vertex   2.552440e+01 2.336857e+01 4.000000e+00
      vertex   2.516673e+01 2.283327e+01 4.000000e+00
    endloop
  endfacet
  facet normal 0.000000e+00 -0.000000e+00 1.000000e+00
    outer loop
      vertex   2.516673e+01 -2.283327e+01 4.000000e+00
      vertex   2.516673e+01 2.283327e+01 4.000000e+00
      vertex   2.463143e+01 2.247560e+01 4.000000e+00
    endloop
  endfacet
  facet normal 0.000000e+00 0.000000e+00 1.000000e+00
    outer loop
      vertex   2.516673e+01 -2.283327e+01 4.000000e+00
      vertex   2.463143e+01 2.247560e+01 4.000000e+00
      vertex   2.463143e+01 -2.247560e+01 4.000000e+00
    endloop
  endfacet
  facet normal 0.000000e+00 -0.000000e+00 1.000000e+00
    outer loop
      vertex   2.463143e+01 -2.247560e+01 4.000000e+00
      vertex   2.463143e+01 2.247560e+01 4.000000e+00
      vertex   2.400000e+01 2.235000e+01 4.000000e+00
    endloop
  endfacet
  facet normal 0.000000e+00 0.000000e+00 1.000000e+00
    outer loop
      vertex   2.463143e+01 -2.247560e+01 4.000000e+00
      vertex   2.400000e+01 2.235000e+01 4.000000e+00
      vertex   2.400000e+01 -2.235000e+01 4.000000e+00
    endloop
  endfacet
  facet normal 0.000000e+00 -0.000000e+00 1.000000e+00
    outer loop
      vertex   2.400000e+01 -2.235000e+01 4.000000e+00
      vertex   2.400000e+01 2.235000e+01 4.000000e+00
      vertex   2.336857e+01 -2.247560e+01 4.000000e+00
    endloop
  endfacet
  facet normal 0.000000e+00 0.000000e+00 1.000000e+00
    outer loop
      vertex   2.336857e+01 -2.247560e+01 4.000000e+00
      vertex   2.400000e+01 2.235000e+01 4.000000e+00
      vertex   2.336857e+01 2.247560e+01 4.000000e+00
    endloop
  endfacet
  facet normal 0.000000e+00 -0.000000e+00 1.000000e+00
    outer loop
      vertex   2.336857e+01 -2.247560e+01 4.000000e+00
      vertex   2.336857e+01 2.247560e+01 4.000000e+00
      vertex   2.283327e+01 -2.283327e+01 4.000000e+00
    endloop
  endfacet
  facet normal 0.000000e+00 0.000000e+00 1.000000e+00
    outer loop
      vertex   2.283327e+01 -2.283327e+01 4.000000e+00
      vertex   2.336857e+01 2.247560e+01 4.000000e+00
      vertex   2.283327e+01 2.283327e+01 4.000000e+00
    endloop
  endfacet
  facet normal 0.000000e+00 -0.000000e+00 1.000000e+00
    outer loop
      vertex   2.283327e+01 -2.283327e+01 4.000000e+00
      vertex   2.283327e+01 2.283327e+01 4.000000e+00
      vertex   -2.283327e+01 2.283327e+01 4.000000e+00
    endloop
  endfacet
  facet normal -0.000000e+00 0.000000e+00 1.000000e+00
    outer loop
      vertex   -2.283327e+01 2.283327e+01 4.000000e+00
      vertex   2.283327e+01 2.283327e+01 4.000000e+00
      vertex   -2.247560e+01 2.336857e+01 4.000000e+00
    endloop
  endfacet
  facet normal 0.000000e+00 0.000000e+00 1.000000e+00
    outer loop
      vertex   -2.247560e+01 2.336857e+01 4.000000e+00
      vertex   2.283327e+01 2.283327e+01 4.000000e+00
      vertex   2.247560e+01 2.336857e+01 4.000000e+00
    endloop
  endfacet
  facet normal -0.000000e+00 0.000000e+00 1.000000e+00
    outer loop
      vertex   -2.247560e+01 2.336857e+01 4.000000e+00
      vertex   2.247560e+01 2.336857e+01 4.000000e+00
      vertex   -2.235000e+01 2.400000e+01 4.000000e+00
    endloop
  endfacet
  facet normal 0.000000e+00 0.000000e+00 1.000000e+00
    outer loop
      vertex   -2.235000e+01 2.400000e+01 4.000000e+00
      vertex   2.247560e+01 2.336857e+01 4.000000e+00
      vertex   2.235000e+01 2.400000e+01 4.000000e+00
    endloop
  endfacet
  facet normal -0.000000e+00 -0.000000e+00 1.000000e+00
    outer loop
      vertex   -2.235000e+01 2.400000e+01 4.000000e+00
      vertex   2.235000e+01 2.400000e+01 4.000000e+00
      vertex   -2.247560e+01 2.463143e+01 4.000000e+00
    endloop
  endfacet
  facet normal 0.000000e+00 0.000000e+00 1.000000e+00
    outer loop
      vertex   -2.247560e+01 2.463143e+01 4.000000e+00
      vertex   2.235000e+01 2.400000e+01 4.000000e+00
      vertex   2.247560e+01 2.463143e+01 4.000000e+00
    endloop
  endfacet
  facet normal -0.000000e+00 -0.000000e+00 1.000000e+00
    outer loop
      vertex   -2.247560e+01 2.463143e+01 4.000000e+00
      vertex   2.247560e+01 2.463143e+01 4.000000e+00
      vertex   -2.283327e+01 2.516673e+01 4.000000e+00
    endloop
  endfacet
  facet normal 0.000000e+00 0.000000e+00 1.000000e+00
    outer loop
      vertex   -2.283327e+01 2.516673e+01 4.000000e+00
      vertex   2.247560e+01 2.463143e+01 4.000000e+00
      vertex   2.283327e+01 2.516673e+01 4.000000e+00
    endloop
  endfacet
  facet normal -0.000000e+00 -0.000000e+00 1.000000e+00
    outer loop
      vertex   -2.283327e+01 2.516673e+01 4.000000e+00
      vertex   2.283327e+01 2.516673e+01 4.000000e+00
      vertex   -2.336857e+01 2.552440e+01 4.000000e+00
    endloop
  endfacet
  facet normal 0.000000e+00 0.000000e+00 1.000000e+00
    outer loop
      vertex   -2.336857e+01 2.552440e+01 4.000000e+00
      vertex   2.283327e+01 2.516673e+01 4.000000e+00
      vertex   2.336857e+01 2.552440e+01 4.000000e+00
    endloop
  endfacet
  facet normal -0.000000e+00 -0.000000e+00 1.000000e+00
    outer loop
      vertex   -2.336857e+01 2.552440e+01 4.000000e+00
      vertex   2.336857e+01 2.552440e+01 4.000000e+00
      vertex   -3.000000e+01 3.000000e+01 4.000000e+00
    endloop
  endfacet
  facet normal -0.000000e+00 0.000000e+00 1.000000e+00
    outer loop
      vertex   2.463143e+01 2.552440e+01 4.000000e+00
      vertex   2.516673e+01 2.516673e+01 4.000000e+00
      vertex   3.000000e+01 3.000000e+01 4.000000e+00
    endloop
  endfacet
  facet normal 0.000000e+00 0.000000e+00 1.000000e+00
    outer loop
      vertex   3.000000e+01 3.000000e+01 4.000000e+00
      vertex   2.516673e+01 2.516673e+01 4.000000e+00
      vertex   2.552440e+01 2.463143e+01 4.000000e+00
    endloop
  endfacet
  facet normal 0.000000e+00 0.000000e+00 1.000000e+00
    outer loop
      vertex   2.565000e+01 -2.400000e+01 4.000000e+00
      vertex   2.552440e+01 -2.463143e+01 4.000000e+00
      vertex   3.000000e+01 -3.000000e+01 4.000000e+00
    endloop
  endfacet
  facet normal 0.000000e+00 0.000000e+00 1.000000e+00
    outer loop
      vertex   3.000000e+01 -3.000000e+01 4.000000e+00
      vertex   2.552440e+01 -2.463143e+01 4.000000e+00
      vertex   2.516673e+01 -2.516673e+01 4.000000e+00
    endloop
  endfacet
  facet normal 0.000000e+00 0.000000e+00 1.000000e+00
    outer loop
      vertex   3.000000e+01 -3.000000e+01 4.000000e+00
      vertex   2.516673e+01 -2.516673e+01 4.000000e+00
      vertex   2.463143e+01 -2.552440e+01 4.000000e+00
    endloop
  endfacet
  facet normal 0.000000e+00 0.000000e+00 1.000000e+00
    outer loop
      vertex   2.463143e+01 -2.552440e+01 4.000000e+00
      vertex   2.400000e+01 -2.565000e+01 4.000000e+00
      vertex   3.000000e+01 -3.000000e+01 4.000000e+00
    endloop
  endfacet
  facet normal 0.000000e+00 0.000000e+00 1.000000e+00
    outer loop
      vertex   3.000000e+01 -3.000000e+01 4.000000e+00
      vertex   2.400000e+01 -2.565000e+01 4.000000e+00
      vertex   2.336857e+01 -2.552440e+01 4.000000e+00
    endloop
  endfacet
  facet normal 0.000000e+00 0.000000e+00 1.000000e+00
    outer loop
      vertex   3.000000e+01 -3.000000e+01 4.000000e+00
      vertex   2.336857e+01 -2.552440e+01 4.000000e+00
      vertex   -2.336857e+01 -2.552440e+01 4.000000e+00
    endloop
  endfacet
  facet normal -0.000000e+00 0.000000e+00 1.000000e+00
    outer loop
      vertex   -2.336857e+01 -2.552440e+01 4.000000e+00
      vertex   2.336857e+01 -2.552440e+01 4.000000e+00
      vertex   -2.283327e+01 -2.516673e+01 4.000000e+00
    endloop
  endfacet
  facet normal 0.000000e+00 0.000000e+00 1.000000e+00
    outer loop
      vertex   -2.283327e+01 -2.516673e+01 4.000000e+00
      vertex   2.336857e+01 -2.552440e+01 4.000000e+00
      vertex   2.283327e+01 -2.516673e+01 4.000000e+00
    endloop
  endfacet
  facet normal -0.000000e+00 0.000000e+00 1.000000e+00
    outer loop
      vertex   -2.283327e+01 -2.516673e+01 4.000000e+00
      vertex   2.283327e+01 -2.516673e+01 4.000000e+00
      vertex   -2.247560e+01 -2.463143e+01 4.000000e+00
    endloop
  endfacet
  facet normal 0.000000e+00 0.000000e+00 1.000000e+00
    outer loop
      vertex   -2.247560e+01 -2.463143e+01 4.000000e+00
      vertex   2.283327e+01 -2.516673e+01 4.000000e+00
      vertex   2.247560e+01 -2.463143e+01 4.000000e+00
    endloop
  endfacet
  facet normal -0.000000e+00 0.000000e+00 1.000000e+00
    outer loop
      vertex   -2.247560e+01 -2.463143e+01 4.000000e+00
      vertex   2.247560e+01 -2.463143e+01 4.000000e+00
      vertex   -2.235000e+01 -2.400000e+01 4.000000e+00
    endloop
  endfacet
  facet normal 0.000000e+00 0.000000e+00 1.000000e+00
    outer loop
      vertex   -2.235000e+01 -2.400000e+01 4.000000e+00
      vertex   2.247560e+01 -2.463143e+01 4.000000e+00
      vertex   2.235000e+01 -2.400000e+01 4.000000e+00
    endloop
  endfacet
  facet normal -0.000000e+00 -0.000000e+00 1.000000e+00
    outer loop
      vertex   -2.235000e+01 -2.400000e+01 4.000000e+00
      vertex   2.235000e+01 -2.400000e+01 4.000000e+00
      vertex   -2.247560e+01 -2.336857e+01 4.000000e+00
    endloop
  endfacet
  facet normal 0.000000e+00 0.000000e+00 1.000000e+00
    outer loop
      vertex   -2.247560e+01 -2.336857e+01 4.000000e+00
      vertex   2.235000e+01 -2.400000e+01 4.000000e+00
      vertex   2.247560e+01 -2.336857e+01 4.000000e+00
    endloop
  endfacet
  facet normal -0.000000e+00 -0.000000e+00 1.000000e+00
    outer loop
      vertex   -2.247560e+01 -2.336857e+01 4.000000e+00
      vertex   2.247560e+01 -2.336857e+01 4.000000e+00
      vertex   -2.283327e+01 -2.283327e+01 4.000000e+00
    endloop
  endfacet
  facet normal 0.000000e+00 0.000000e+00 1.000000e+00
    outer loop
      vertex   -2.283327e+01 -2.283327e+01 4.000000e+00
      vertex   2.247560e+01 -2.336857e+01 4.000000e+00
      vertex   2.283327e+01 -2.283327e+01 4.000000e+00
    endloop
  endfacet
  facet normal -0.000000e+00 0.000000e+00 1.000000e+00
    outer loop
      vertex   -2.283327e+01 -2.283327e+01 4.000000e+00
      vertex   2.283327e+01 -2.283327e+01 4.000000e+00
      vertex   -2.283327e+01 2.283327e+01 4.000000e+00
    endloop
  endfacet
  facet normal 0.000000e+00 0.000000e+00 1.000000e+00
    outer loop
      vertex   -2.463143e+01 -2.552440e+01 4.000000e+00
      vertex   -2.516673e+01 -2.516673e+01 4.000000e+00
      vertex   -3.000000e+01 -3.000000e+01 4.000000e+00
    endloop
  endfacet
  facet normal 0.000000e+00 0.000000e+00 1.000000e+00
    outer loop
      vertex   -3.000000e+01 -3.000000e+01 4.000000e+00
      vertex   -2.516673e+01 -2.516673e+01 4.000000e+00
      vertex   -2.552440e+01 -2.463143e+01 4.000000e+00
    endloop
  endfacet
  facet normal 0.000000e+00 0.000000e+00 1.000000e+00
    outer loop
      vertex   -3.000000e+01 -3.000000e+01 4.000000e+00
      vertex   -2.552440e+01 -2.463143e+01 4.000000e+00
      vertex   -2.565000e+01 -2.400000e+01 4.000000e+00
    endloop
  endfacet
  facet normal 0.000000e+00 -0.000000e+00 1.000000e+00
    outer loop
      vertex   -2.565000e+01 -2.400000e+01 4.000000e+00
      vertex   -2.552440e+01 -2.336857e+01 4.000000e+00
      vertex   -3.000000e+01 -3.000000e+01 4.000000e+00
    endloop
  endfacet
  facet normal 0.000000e+00 0.000000e+00 1.000000e+00
    outer loop
      vertex   -3.000000e+01 -3.000000e+01 4.000000e+00
      vertex   -2.552440e+01 -2.336857e+01 4.000000e+00
      vertex   -2.552440e+01 2.336857e+01 4.000000e+00
    endloop
  endfacet
  facet normal 0.000000e+00 0.000000e+00 1.000000e+00
    outer loop
      vertex   -2.552440e+01 -2.336857e+01 4.000000e+00
      vertex   -2.516673e+01 -2.283327e+01 4.000000e+00
      vertex   -2.552440e+01 2.336857e+01 4.000000e+00
    endloop
  endfacet
  facet normal 0.000000e+00 0.000000e+00 1.000000e+00
    outer loop
      vertex   -2.552440e+01 2.336857e+01 4.000000e+00
      vertex   -2.516673e+01 -2.283327e+01 4.000000e+00
      vertex   -2.516673e+01 2.283327e+01 4.000000e+00
    endloop
  endfacet
  facet normal 0.000000e+00 0.000000e+00 1.000000e+00
    outer loop
      vertex   -2.516673e+01 2.283327e+01 4.000000e+00
      vertex   -2.516673e+01 -2.283327e+01 4.000000e+00
      vertex   -2.463143e+01 2.247560e+01 4.000000e+00
    endloop
  endfacet
  facet normal 0.000000e+00 0.000000e+00 1.000000e+00
    outer loop
      vertex   -2.463143e+01 2.247560e+01 4.000000e+00
      vertex   -2.516673e+01 -2.283327e+01 4.000000e+00
      vertex   -2.463143e+01 -2.247560e+01 4.000000e+00
    endloop
  endfacet
  facet normal 0.000000e+00 0.000000e+00 1.000000e+00
    outer loop
      vertex   -2.463143e+01 2.247560e+01 4.000000e+00
      vertex   -2.463143e+01 -2.247560e+01 4.000000e+00
      vertex   -2.400000e+01 2.235000e+01 4.000000e+00
    endloop
  endfacet
  facet normal 0.000000e+00 0.000000e+00 1.000000e+00
    outer loop
      vertex   -2.400000e+01 2.235000e+01 4.000000e+00
      vertex   -2.463143e+01 -2.247560e+01 4.000000e+00
      vertex   -2.400000e+01 -2.235000e+01 4.000000e+00
    endloop
  endfacet
  facet normal 0.000000e+00 0.000000e+00 1.000000e+00
    outer loop
      vertex   -2.400000e+01 2.235000e+01 4.000000e+00
      vertex   -2.400000e+01 -2.235000e+01 4.000000e+00
      vertex   -2.336857e+01 -2.247560e+01 4.000000e+00
    endloop
  endfacet
  facet normal -0.000000e+00 0.000000e+00 1.000000e+00
    outer loop
      vertex   -2.400000e+01 2.235000e+01 4.000000e+00
      vertex   -2.336857e+01 -2.247560e+01 4.000000e+00
      vertex   -2.336857e+01 2.247560e+01 4.000000e+00
    endloop
  endfacet
  facet normal 0.000000e+00 0.000000e+00 1.000000e+00
    outer loop
      vertex   -2.336857e+01 2.247560e+01 4.000000e+00
      vertex   -2.336857e+01 -2.247560e+01 4.000000e+00
      vertex   -2.283327e+01 -2.283327e+01 4.000000e+00
    endloop
  endfacet
  facet normal -0.000000e+00 0.000000e+00 1.000000e+00
    outer loop
      vertex   -2.336857e+01 2.247560e+01 4.000000e+00
      vertex   -2.283327e+01 -2.283327e+01 4.000000e+00
      vertex   -2.283327e+01 2.283327e+01 4.000000e+00
    endloop
  endfacet
  facet normal 0.000000e+00 -0.000000e+00 1.000000e+00
    outer loop
      vertex   -2.552440e+01 2.463143e+01 4.000000e+00
      vertex   -2.516673e+01 2.516673e+01 4.000000e+00
      vertex   -3.000000e+01 3.000000e+01 4.000000e+00
    endloop
  endfacet
  facet normal 0.000000e+00 0.000000e+00 1.000000e+00
    outer loop
      vertex   -3.000000e+01 3.000000e+01 4.000000e+00
      vertex   -2.516673e+01 2.516673e+01 4.000000e+00
      vertex   -2.463143e+01 2.552440e+01 4.000000e+00
    endloop
  endfacet
  facet normal 0.000000e+00 0.000000e+00 1.000000e+00
    outer loop
      vertex   -3.000000e+01 3.000000e+01 4.000000e+00
      vertex   -2.463143e+01 2.552440e+01 4.000000e+00
      vertex   -2.400000e+01 2.565000e+01 4.000000e+00
    endloop
  endfacet
  facet normal -0.000000e+00 -0.000000e+00 1.000000e+00
    outer loop
      vertex   -2.400000e+01 2.565000e+01 4.000000e+00
      vertex   -2.336857e+01 2.552440e+01 4.000000e+00
      vertex   -3.000000e+01 3.000000e+01 4.000000e+00
    endloop
  endfacet
  facet normal 0.000000e+00 0.000000e+00 -1.000000e+00
    outer loop
      vertex   -3.000000e+01 -3.000000e+01 0.000000e+00
      vertex   2.336857e+01 -2.552440e+01 0.000000e+00
      vertex   3.000000e+01 -3.000000e+01 0.000000e+00
    endloop
  endfacet
  facet normal 0.000000e+00 0.000000e+00 -1.000000e+00
    outer loop
      vertex   3.000000e+01 -3.000000e+01 0.000000e+00
      vertex   2.336857e+01 -2.552440e+01 0.000000e+00
      vertex   2.400000e+01 -2.565000e+01 0.000000e+00
    endloop
  endfacet
  facet normal 0.000000e+00 0.000000e+00 -1.000000e+00
    outer loop
      vertex   3.000000e+01 -3.000000e+01 0.000000e+00
      vertex   2.400000e+01 -2.565000e+01 0.000000e+00
      vertex   2.463143e+01 -2.552440e+01 0.000000e+00
    endloop
  endfacet
  facet normal 0.000000e+00 0.000000e+00 -1.000000e+00
    outer loop
      vertex   -3.000000e+01 3.000000e+01 0.000000e+00
      vertex   -2.552440e+01 2.336857e+01 0.000000e+00
      vertex   -3.000000e+01 -3.000000e+01 0.000000e+00
    endloop
  endfacet
  facet normal 0.000000e+00 0.000000e+00 -1.000000e+00
    outer loop
      vertex   -3.000000e+01 -3.000000e+01 0.000000e+00
      vertex   -2.552440e+01 2.336857e+01 0.000000e+00
      vertex   -2.552440e+01 -2.336857e+01 0.000000e+00
    endloop
  endfacet
  facet normal 0.000000e+00 0.000000e+00 -1.000000e+00
    outer loop
      vertex   -3.000000e+01 -3.000000e+01 0.000000e+00
      vertex   -2.552440e+01 -2.336857e+01 0.000000e+00
      vertex   -2.565000e+01 -2.400000e+01 0.000000e+00
    endloop
  endfacet
  facet normal -0.000000e+00 0.000000e+00 -1.000000e+00
    outer loop
      vertex   3.000000e+01 3.000000e+01 0.000000e+00
      vertex   -2.336857e+01 2.552440e+01 0.000000e+00
      vertex   -3.000000e+01 3.000000e+01 0.000000e+00
    endloop
  endfacet
  facet normal 0.000000e+00 0.000000e+00 -1.000000e+00
    outer loop
      vertex   -3.000000e+01 3.000000e+01 0.000000e+00
      vertex   -2.336857e+01 2.552440e+01 0.000000e+00
      vertex   -2.400000e+01 2.565000e+01 0.000000e+00
    endloop
  endfacet
  facet normal 0.000000e+00 0.000000e+00 -1.000000e+00
    outer loop
      vertex   -3.000000e+01 3.000000e+01 0.000000e+00
      vertex   -2.400000e+01 2.565000e+01 0.000000e+00
      vertex   -2.463143e+01 2.552440e+01 0.000000e+00
    endloop
  endfacet
  facet normal 0.000000e+00 0.000000e+00 -1.000000e+00
    outer loop
      vertex   3.000000e+01 -3.000000e+01 0.000000e+00
      vertex   2.552440e+01 2.336857e+01 0.000000e+00
      vertex   3.000000e+01 3.000000e+01 0.000000e+00
    endloop
  endfacet
  facet normal 0.000000e+00 0.000000e+00 -1.000000e+00
    outer loop
      vertex   3.000000e+01 3.000000e+01 0.000000e+00
      vertex   2.552440e+01 2.336857e+01 0.000000e+00
      vertex   2.565000e+01 2.400000e+01 0.000000e+00
    endloop
  endfacet
  facet normal 0.000000e+00 0.000000e+00 -1.000000e+00
    outer loop
      vertex   3.000000e+01 3.000000e+01 0.000000e+00
      vertex   2.565000e+01 2.400000e+01 0.000000e+00
      vertex   2.552440e+01 2.463143e+01 0.000000e+00
    endloop
  endfacet
  facet normal 0.000000e+00 0.000000e+00 -1.000000e+00
    outer loop
      vertex   2.552440e+01 2.463143e+01 0.000000e+00
      vertex   2.516673e+01 2.516673e+01 0.000000e+00
      vertex   3.000000e+01 3.000000e+01 0.000000e+00
    endloop
  endfacet
  facet normal 0.000000e+00 0.000000e+00 -1.000000e+00
    outer loop
      vertex   3.000000e+01 3.000000e+01 0.000000e+00
      vertex   2.516673e+01 2.516673e+01 0.000000e+00
      vertex   2.463143e+01 2.552440e+01 0.000000e+00
    endloop
  endfacet
  facet normal 0.000000e+00 0.000000e+00 -1.000000e+00
    outer loop
      vertex   3.000000e+01 3.000000e+01 0.000000e+00
      vertex   2.463143e+01 2.552440e+01 0.000000e+00
      vertex   2.400000e+01 2.565000e+01 0.000000e+00
    endloop
  endfacet
  facet normal -0.000000e+00 0.000000e+00 -1.000000e+00
    outer loop
      vertex   2.400000e+01 2.565000e+01 0.000000e+00
      vertex   2.336857e+01 2.552440e+01 0.000000e+00
      vertex   3.000000e+01 3.000000e+01 0.000000e+00
    endloop
  endfacet
  facet normal 0.000000e+00 0.000000e+00 -1.000000e+00
    outer loop
      vertex   3.000000e+01 3.000000e+01 0.000000e+00
      vertex   2.336857e+01 2.552440e+01 0.000000e+00
      vertex   -2.336857e+01 2.552440e+01 0.000000e+00
    endloop
  endfacet
  facet normal 0.000000e+00 0.000000e+00 -1.000000e+00
    outer loop
      vertex   -2.336857e+01 2.552440e+01 0.000000e+00
      vertex   2.336857e+01 2.552440e+01 0.000000e+00
      vertex   -2.283327e+01 2.516673e+01 0.000000e+00
    endloop
  endfacet
  facet normal 0.000000e+00 0.000000e+00 -1.000000e+00
    outer loop
      vertex   -2.283327e+01 2.516673e+01 0.000000e+00
      vertex   2.336857e+01 2.552440e+01 0.000000e+00
      vertex   2.283327e+01 2.516673e+01 0.000000e+00
    endloop
  endfacet
  facet normal 0.000000e+00 0.000000e+00 -1.000000e+00
    outer loop
      vertex   -2.283327e+01 2.516673e+01 0.000000e+00
      vertex   2.283327e+01 2.516673e+01 0.000000e+00
      vertex   -2.247560e+01 2.463143e+01 0.000000e+00
    endloop
  endfacet
  facet normal 0.000000e+00 0.000000e+00 -1.000000e+00
    outer loop
      vertex   -2.247560e+01 2.463143e+01 0.000000e+00
      vertex   2.283327e+01 2.516673e+01 0.000000e+00
      vertex   2.247560e+01 2.463143e+01 0.000000e+00
    endloop
  endfacet
  facet normal 0.000000e+00 0.000000e+00 -1.000000e+00
    outer loop
      vertex   -2.247560e+01 2.463143e+01 0.000000e+00
      vertex   2.247560e+01 2.463143e+01 0.000000e+00
      vertex   -2.235000e+01 2.400000e+01 0.000000e+00
    endloop
  endfacet
  facet normal 0.000000e+00 0.000000e+00 -1.000000e+00
    outer loop
      vertex   -2.235000e+01 2.400000e+01 0.000000e+00
      vertex   2.247560e+01 2.463143e+01 0.000000e+00
      vertex   2.235000e+01 2.400000e+01 0.000000e+00
    endloop
  endfacet
  facet normal 0.000000e+00 -0.000000e+00 -1.000000e+00
    outer loop
      vertex   -2.235000e+01 2.400000e+01 0.000000e+00
      vertex   2.235000e+01 2.400000e+01 0.000000e+00
      vertex   -2.247560e+01 2.336857e+01 0.000000e+00
    endloop
  endfacet
  facet normal 0.000000e+00 0.000000e+00 -1.000000e+00
    outer loop
      vertex   -2.247560e+01 2.336857e+01 0.000000e+00
      vertex   2.235000e+01 2.400000e+01 0.000000e+00
      vertex   2.247560e+01 2.336857e+01 0.000000e+00
    endloop
  endfacet
  facet normal 0.000000e+00 -0.000000e+00 -1.000000e+00
    outer loop
      vertex   -2.247560e+01 2.336857e+01 0.000000e+00
      vertex   2.247560e+01 2.336857e+01 0.000000e+00
      vertex   -2.283327e+01 2.283327e+01 0.000000e+00
    endloop
  endfacet
  facet normal 0.000000e+00 0.000000e+00 -1.000000e+00
    outer loop
      vertex   -2.283327e+01 2.283327e+01 0.000000e+00
      vertex   2.247560e+01 2.336857e+01 0.000000e+00
      vertex   2.283327e+01 2.283327e+01 0.000000e+00
    endloop
  endfacet
  facet normal 0.000000e+00 -0.000000e+00 -1.000000e+00
    outer loop
      vertex   -2.283327e+01 2.283327e+01 0.000000e+00
      vertex   2.283327e+01 2.283327e+01 0.000000e+00
      vertex   -2.283327e+01 -2.283327e+01 0.000000e+00
    endloop
  endfacet
  facet normal 0.000000e+00 0.000000e+00 -1.000000e+00
    outer loop
      vertex   -2.283327e+01 -2.283327e+01 0.000000e+00
      vertex   2.283327e+01 2.283327e+01 0.000000e+00
      vertex   2.283327e+01 -2.283327e+01 0.000000e+00
    endloop
  endfacet
  facet normal 0.000000e+00 0.000000e+00 -1.000000e+00
    outer loop
      vertex   -2.283327e+01 -2.283327e+01 0.000000e+00
      vertex   2.283327e+01 -2.283327e+01 0.000000e+00
      vertex   -2.247560e+01 -2.336857e+01 0.000000e+00
    endloop
  endfacet
  facet normal 0.000000e+00 0.000000e+00 -1.000000e+00
    outer loop
      vertex   -2.247560e+01 -2.336857e+01 0.000000e+00
      vertex   2.283327e+01 -2.283327e+01 0.000000e+00
      vertex   2.247560e+01 -2.336857e+01 0.000000e+00
    endloop
  endfacet
  facet normal 0.000000e+00 0.000000e+00 -1.000000e+00
    outer loop
      vertex   -2.247560e+01 -2.336857e+01 0.000000e+00
      vertex   2.247560e+01 -2.336857e+01 0.000000e+00
      vertex   -2.235000e+01 -2.400000e+01 0.000000e+00
    endloop
  endfacet
  facet normal 0.000000e+00 0.000000e+00 -1.000000e+00
    outer loop
      vertex   -2.235000e+01 -2.400000e+01 0.000000e+00
      vertex   2.247560e+01 -2.336857e+01 0.000000e+00
      vertex   2.235000e+01 -2.400000e+01 0.000000e+00
    endloop
  endfacet
  facet normal 0.000000e+00 -0.000000e+00 -1.000000e+00
    outer loop
      vertex   -2.235000e+01 -2.400000e+01 0.000000e+00
      vertex   2.235000e+01 -2.400000e+01 0.000000e+00
      vertex   -2.247560e+01 -2.463143e+01 0.000000e+00
    endloop
  endfacet
  facet normal 0.000000e+00 0.000000e+00 -1.000000e+00
    outer loop
      vertex   -2.247560e+01 -2.463143e+01 0.000000e+00
      vertex   2.235000e+01 -2.400000e+01 0.000000e+00
      vertex   2.247560e+01 -2.463143e+01 0.000000e+00
    endloop
  endfacet
  facet normal 0.000000e+00 -0.000000e+00 -1.000000e+00
    outer loop
      vertex   -2.247560e+01 -2.463143e+01 0.000000e+00
      vertex   2.247560e+01 -2.463143e+01 0.000000e+00
      vertex   -2.283327e+01 -2.516673e+01 0.000000e+00
    endloop
  endfacet
  facet normal 0.000000e+00 0.000000e+00 -1.000000e+00
    outer loop
      vertex   -2.283327e+01 -2.516673e+01 0.000000e+00
      vertex   2.247560e+01 -2.463143e+01 0.000000e+00
      vertex   2.283327e+01 -2.516673e+01 0.000000e+00
    endloop
  endfacet
  facet normal 0.000000e+00 -0.000000e+00 -1.000000e+00
    outer loop
      vertex   -2.283327e+01 -2.516673e+01 0.000000e+00
      vertex   2.283327e+01 -2.516673e+01 0.000000e+00
      vertex   -2.336857e+01 -2.552440e+01 0.000000e+00
    endloop
  endfacet
  facet normal 0.000000e+00 0.000000e+00 -1.000000e+00
    outer loop
      vertex   -2.336857e+01 -2.552440e+01 0.000000e+00
      vertex   2.283327e+01 -2.516673e+01 0.000000e+00
      vertex   2.336857e+01 -2.552440e+01 0.000000e+00
    endloop
  endfacet
  facet normal 0.000000e+00 -0.000000e+00 -1.000000e+00
    outer loop
      vertex   -2.336857e+01 -2.552440e+01 0.000000e+00
      vertex   2.336857e+01 -2.552440e+01 0.000000e+00
      vertex   -3.000000e+01 -3.000000e+01 0.000000e+00
    endloop
  endfacet
  facet normal 0.000000e+00 -0.000000e+00 -1.000000e+00
    outer loop
      vertex   2.283327e+01 2.283327e+01 0.000000e+00
      vertex   2.336857e+01 2.247560e+01 0.000000e+00
      vertex   2.283327e+01 -2.283327e+01 0.000000e+00
    endloop
  endfacet
  facet normal 0.000000e+00 0.000000e+00 -1.000000e+00
    outer loop
      vertex   2.283327e+01 -2.283327e+01 0.000000e+00
      vertex   2.336857e+01 2.247560e+01 0.000000e+00
      vertex   2.336857e+01 -2.247560e+01 0.000000e+00
    endloop
  endfacet
  facet normal 0.000000e+00 0.000000e+00 -1.000000e+00
    outer loop
      vertex   2.336857e+01 -2.247560e+01 0.000000e+00
      vertex   2.336857e+01 2.247560e+01 0.000000e+00
      vertex   2.400000e+01 2.235000e+01 0.000000e+00
    endloop
  endfacet
  facet normal 0.000000e+00 0.000000e+00 -1.000000e+00
    outer loop
      vertex   2.336857e+01 -2.247560e+01 0.000000e+00
      vertex   2.400000e+01 2.235000e+01 0.000000e+00
      vertex   2.400000e+01 -2.235000e+01 0.000000e+00
    endloop
  endfacet
  facet normal 0.000000e+00 0.000000e+00 -1.000000e+00
    outer loop
      vertex   2.400000e+01 -2.235000e+01 0.000000e+00
      vertex   2.400000e+01 2.235000e+01 0.000000e+00
      vertex   2.463143e+01 -2.247560e+01 0.000000e+00
    endloop
  endfacet
  facet normal 0.000000e+00 0.000000e+00 -1.000000e+00
    outer loop
      vertex   2.463143e+01 -2.247560e+01 0.000000e+00
      vertex   2.400000e+01 2.235000e+01 0.000000e+00
      vertex   2.463143e+01 2.247560e+01 0.000000e+00
    endloop
  endfacet
  facet normal 0.000000e+00 0.000000e+00 -1.000000e+00
    outer loop
      vertex   2.463143e+01 -2.247560e+01 0.000000e+00
      vertex   2.463143e+01 2.247560e+01 0.000000e+00
      vertex   2.516673e+01 -2.283327e+01 0.000000e+00
    endloop
  endfacet
  facet normal 0.000000e+00 0.000000e+00 -1.000000e+00
    outer loop
      vertex   2.516673e+01 -2.283327e+01 0.000000e+00
      vertex   2.463143e+01 2.247560e+01 0.000000e+00
      vertex   2.516673e+01 2.283327e+01 0.000000e+00
    endloop
  endfacet
  facet normal 0.000000e+00 0.000000e+00 -1.000000e+00
    outer loop
      vertex   2.516673e+01 -2.283327e+01 0.000000e+00
      vertex   2.516673e+01 2.283327e+01 0.000000e+00
      vertex   2.552440e+01 2.336857e+01 0.000000e+00
    endloop
  endfacet
  facet normal 0.000000e+00 0.000000e+00 -1.000000e+00
    outer loop
      vertex   2.552440e+01 -2.463143e+01 0.000000e+00
      vertex   2.565000e+01 -2.400000e+01 0.000000e+00
      vertex   3.000000e+01 -3.000000e+01 0.000000e+00
    endloop
  endfacet
  facet normal 0.000000e+00 0.000000e+00 -1.000000e+00
    outer loop
      vertex   3.000000e+01 -3.000000e+01 0.000000e+00
      vertex   2.565000e+01 -2.400000e+01 0.000000e+00
      vertex   2.552440e+01 -2.336857e+01 0.000000e+00
    endloop
  endfacet
  facet normal 0.000000e+00 0.000000e+00 -1.000000e+00
    outer loop
      vertex   3.000000e+01 -3.000000e+01 0.000000e+00
      vertex   2.552440e+01 -2.336857e+01 0.000000e+00
      vertex   2.552440e+01 2.336857e+01 0.000000e+00
    endloop
  endfacet
  facet normal 0.000000e+00 0.000000e+00 -1.000000e+00
    outer loop
      vertex   2.552440e+01 2.336857e+01 0.000000e+00
      vertex   2.552440e+01 -2.336857e+01 0.000000e+00
      vertex   2.516673e+01 -2.283327e+01 0.000000e+00
    endloop
  endfacet
  facet normal 0.000000e+00 0.000000e+00 -1.000000e+00
    outer loop
      vertex   2.463143e+01 -2.552440e+01 0.000000e+00
      vertex   2.516673e+01 -2.516673e+01 0.000000e+00
      vertex   3.000000e+01 -3.000000e+01 0.000000e+00
    endloop
  endfacet
  facet normal 0.000000e+00 0.000000e+00 -1.000000e+00
    outer loop
      vertex   3.000000e+01 -3.000000e+01 0.000000e+00
      vertex   2.516673e+01 -2.516673e+01 0.000000e+00
      vertex   2.552440e+01 -2.463143e+01 0.000000e+00
    endloop
  endfacet
  facet normal 0.000000e+00 0.000000e+00 -1.000000e+00
    outer loop
      vertex   -2.283327e+01 2.283327e+01 0.000000e+00
      vertex   -2.283327e+01 -2.283327e+01 0.000000e+00
      vertex   -2.336857e+01 2.247560e+01 0.000000e+00
    endloop
  endfacet
  facet normal 0.000000e+00 -0.000000e+00 -1.000000e+00
    outer loop
      vertex   -2.336857e+01 2.247560e+01 0.000000e+00
      vertex   -2.283327e+01 -2.283327e+01 0.000000e+00
      vertex   -2.336857e+01 -2.247560e+01 0.000000e+00
    endloop
  endfacet
  facet normal 0.000000e+00 0.000000e+00 -1.000000e+00
    outer loop
      vertex   -2.336857e+01 2.247560e+01 0.000000e+00
      vertex   -2.336857e+01 -2.247560e+01 0.000000e+00
      vertex   -2.400000e+01 2.235000e+01 0.000000e+00
    endloop
  endfacet
  facet normal 0.000000e+00 -0.000000e+00 -1.000000e+00
    outer loop
      vertex   -2.400000e+01 2.235000e+01 0.000000e+00
      vertex   -2.336857e+01 -2.247560e+01 0.000000e+00
      vertex   -2.400000e+01 -2.235000e+01 0.000000e+00
    endloop
  endfacet
  facet normal 0.000000e+00 0.000000e+00 -1.000000e+00
    outer loop
      vertex   -2.400000e+01 2.235000e+01 0.000000e+00
      vertex   -2.400000e+01 -2.235000e+01 0.000000e+00
      vertex   -2.463143e+01 -2.247560e+01 0.000000e+00
    endloop
  endfacet
  facet normal -0.000000e+00 0.000000e+00 -1.000000e+00
    outer loop
      vertex   -2.400000e+01 2.235000e+01 0.000000e+00
      vertex   -2.463143e+01 -2.247560e+01 0.000000e+00
      vertex   -2.463143e+01 2.247560e+01 0.000000e+00
    endloop
  endfacet
  facet normal 0.000000e+00 0.000000e+00 -1.000000e+00
    outer loop
      vertex   -2.463143e+01 2.247560e+01 0.000000e+00
      vertex   -2.463143e+01 -2.247560e+01 0.000000e+00
      vertex   -2.516673e+01 -2.283327e+01 0.000000e+00
    endloop
  endfacet
  facet normal -0.000000e+00 0.000000e+00 -1.000000e+00
    outer loop
      vertex   -2.463143e+01 2.247560e+01 0.000000e+00
      vertex   -2.516673e+01 -2.283327e+01 0.000000e+00
      vertex   -2.516673e+01 2.283327e+01 0.000000e+00
    endloop
  endfacet
  facet normal -0.000000e+00 0.000000e+00 -1.000000e+00
    outer loop
      vertex   -2.516673e+01 2.283327e+01 0.000000e+00
      vertex   -2.516673e+01 -2.283327e+01 0.000000e+00
      vertex   -2.552440e+01 2.336857e+01 0.000000e+00
    endloop
  endfacet
  facet normal 0.000000e+00 -0.000000e+00 -1.000000e+00
    outer loop
      vertex   -2.552440e+01 2.336857e+01 0.000000e+00
      vertex   -2.516673e+01 -2.283327e+01 0.000000e+00
      vertex   -2.552440e+01 -2.336857e+01 0.000000e+00
    endloop
  endfacet
  facet normal 0.000000e+00 -0.000000e+00 -1.000000e+00
    outer loop
      vertex   -2.565000e+01 -2.400000e+01 0.000000e+00
      vertex   -2.552440e+01 -2.463143e+01 0.000000e+00
      vertex   -3.000000e+01 -3.000000e+01 0.000000e+00
    endloop
  endfacet
  facet normal 0.000000e+00 0.000000e+00 -1.000000e+00
    outer loop
      vertex   -3.000000e+01 -3.000000e+01 0.000000e+00
      vertex   -2.552440e+01 -2.463143e+01 0.000000e+00
      vertex   -2.516673e+01 -2.516673e+01 0.000000e+00
    endloop
  endfacet
  facet normal 0.000000e+00 0.000000e+00 -1.000000e+00
    outer loop
      vertex   -3.000000e+01 -3.000000e+01 0.000000e+00
      vertex   -2.516673e+01 -2.516673e+01 0.000000e+00
      vertex   -2.463143e+01 -2.552440e+01 0.000000e+00
    endloop
  endfacet
  facet normal 0.000000e+00 -0.000000e+00 -1.000000e+00
    outer loop
      vertex   -2.463143e+01 -2.552440e+01 0.000000e+00
      vertex   -2.400000e+01 -2.565000e+01 0.000000e+00
      vertex   -3.000000e+01 -3.000000e+01 0.000000e+00
    endloop
  endfacet
  facet normal 0.000000e+00 0.000000e+00 -1.000000e+00
    outer loop
      vertex   -3.000000e+01 -3.000000e+01 0.000000e+00
      vertex   -2.400000e+01 -2.565000e+01 0.000000e+00
      vertex   -2.336857e+01 -2.552440e+01 0.000000e+00
    endloop
  endfacet
  facet normal -0.000000e+00 0.000000e+00 -1.000000e+00
    outer loop
      vertex   -2.463143e+01 2.552440e+01 0.000000e+00
      vertex   -2.516673e+01 2.516673e+01 0.000000e+00
      vertex   -3.000000e+01 3.000000e+01 0.000000e+00
    endloop
  endfacet
  facet normal 0.000000e+00 0.000000e+00 -1.000000e+00
    outer loop
      vertex   -3.000000e+01 3.000000e+01 0.000000e+00
      vertex   -2.516673e+01 2.516673e+01 0.000000e+00
      vertex   -2.552440e+01 2.463143e+01 0.000000e+00
    endloop
  endfacet
  facet normal 0.000000e+00 0.000000e+00 -1.000000e+00
    outer loop
      vertex   -3.000000e+01 3.000000e+01 0.000000e+00
      vertex   -2.552440e+01 2.463143e+01 0.000000e+00
      vertex   -2.565000e+01 2.400000e+01 0.000000e+00
    endloop
  endfacet
  facet normal -0.000000e+00 -0.000000e+00 -1.000000e+00
    outer loop
      vertex   -2.565000e+01 2.400000e+01 0.000000e+00
      vertex   -2.552440e+01 2.336857e+01 0.000000e+00
      vertex   -3.000000e+01 3.000000e+01 0.000000e+00
    endloop
  endfacet
endsolid
