solid ASCII
  facet normal 6.870011e-01 1.868029e-01 7.022351e-01
    outer loop
      vertex   8.031134e+00 1.340640e+01 -7.444534e+01
      vertex   7.878559e+00 1.492485e+01 -7.470000e+01
      vertex   5.440834e+00 1.467990e+01 -7.225000e+01
    endloop
  endfacet
  facet normal 7.104323e-01 -4.638748e-02 7.022351e-01
    outer loop
      vertex   5.440834e+00 1.467990e+01 -7.225000e+01
      vertex   7.878559e+00 1.492485e+01 -7.470000e+01
      vertex   7.725985e+00 1.644329e+01 -7.444534e+01
    endloop
  endfacet
  facet normal 7.234515e-01 -8.448375e-02 6.851864e-01
    outer loop
      vertex   5.440834e+00 1.467990e+01 -7.225000e+01
      vertex   7.725985e+00 1.644329e+01 -7.444534e+01
      vertex   5.343232e+00 1.565125e+01 -7.202718e+01
    endloop
  endfacet
  facet normal 7.286241e-01 -2.693054e-01 6.297472e-01
    outer loop
      vertex   5.343232e+00 1.565125e+01 -7.202718e+01
      vertex   7.725985e+00 1.644329e+01 -7.444534e+01
      vertex   7.589944e+00 1.779718e+01 -7.370896e+01
    endloop
  endfacet
  facet normal 7.550560e-01 -3.621829e-01 5.465473e-01
    outer loop
      vertex   5.343232e+00 1.565125e+01 -7.202718e+01
      vertex   7.589944e+00 1.779718e+01 -7.370896e+01
      vertex   5.264962e+00 1.643021e+01 -7.140285e+01
    endloop
  endfacet
  facet normal 7.476547e-01 -4.540042e-01 4.846573e-01
    outer loop
      vertex   5.264962e+00 1.643021e+01 -7.140285e+01
      vertex   7.589944e+00 1.779718e+01 -7.370896e+01
      vertex   7.485179e+00 1.883981e+01 -7.257066e+01
    endloop
  endfacet
  facet normal 7.694402e-01 -5.607831e-01 3.057518e-01
    outer loop
      vertex   5.264962e+00 1.643021e+01 -7.140285e+01
      vertex   7.485179e+00 1.883981e+01 -7.257066e+01
      vertex   5.221525e+00 1.686250e+01 -7.050067e+01
    endloop
  endfacet
  facet normal 7.651443e-01 -5.771298e-01 2.854390e-01
    outer loop
      vertex   5.221525e+00 1.686250e+01 -7.050067e+01
      vertex   7.485179e+00 1.883981e+01 -7.257066e+01
      vertex   7.423043e+00 1.945820e+01 -7.115378e+01
    endloop
  endfacet
  facet normal 7.685757e-01 -6.370427e-01 5.888955e-02
    outer loop
      vertex   5.221525e+00 1.686250e+01 -7.050067e+01
      vertex   7.423043e+00 1.945820e+01 -7.115378e+01
      vertex   7.410270e+00 1.958532e+01 -6.961188e+01
    endloop
  endfacet
  facet normal 7.794028e-01 -6.265231e-01 0.000000e+00
    outer loop
      vertex   5.221525e+00 1.686250e+01 -7.050067e+01
      vertex   7.410270e+00 1.958532e+01 -6.961188e+01
      vertex   5.221525e+00 1.686250e+01 -6.949933e+01
    endloop
  endfacet
  facet normal 7.636956e-01 -6.211656e-01 -1.758474e-01
    outer loop
      vertex   5.221525e+00 1.686250e+01 -6.949933e+01
      vertex   7.410270e+00 1.958532e+01 -6.961188e+01
      vertex   7.448242e+00 1.920742e+01 -6.811203e+01
    endloop
  endfacet
  facet normal 7.741187e-01 -5.555576e-01 -3.034732e-01
    outer loop
      vertex   5.221525e+00 1.686250e+01 -6.949933e+01
      vertex   7.448242e+00 1.920742e+01 -6.811203e+01
      vertex   5.264962e+00 1.643021e+01 -6.859715e+01
    endloop
  endfacet
  facet normal 7.555109e-01 -5.256329e-01 -3.910414e-01
    outer loop
      vertex   5.264962e+00 1.643021e+01 -6.859715e+01
      vertex   7.448242e+00 1.920742e+01 -6.811203e+01
      vertex   7.532847e+00 1.836542e+01 -6.681678e+01
    endloop
  endfacet
  facet normal 7.477926e-01 -3.678534e-01 -5.527116e-01
    outer loop
      vertex   5.264962e+00 1.643021e+01 -6.859715e+01
      vertex   7.532847e+00 1.836542e+01 -6.681678e+01
      vertex   5.343232e+00 1.565125e+01 -6.797282e+01
    endloop
  endfacet
  facet normal 7.451658e-01 -3.628258e-01 -5.595403e-01
    outer loop
      vertex   5.343232e+00 1.565125e+01 -6.797282e+01
      vertex   7.532847e+00 1.836542e+01 -6.681678e+01
      vertex   7.654914e+00 1.715059e+01 -6.586647e+01
    endloop
  endfacet
  facet normal 7.196889e-01 -1.607301e-01 -6.754359e-01
    outer loop
      vertex   5.343232e+00 1.565125e+01 -6.797282e+01
      vertex   7.654914e+00 1.715059e+01 -6.586647e+01
      vertex   7.801217e+00 1.569456e+01 -6.536410e+01
    endloop
  endfacet
  facet normal 7.259634e-01 -8.364442e-02 -6.826278e-01
    outer loop
      vertex   5.343232e+00 1.565125e+01 -6.797282e+01
      vertex   7.801217e+00 1.569456e+01 -6.536410e+01
      vertex   5.440834e+00 1.467990e+01 -6.775000e+01
    endloop
  endfacet
  facet normal 6.941769e-01 6.975156e-02 -7.164168e-01
    outer loop
      vertex   5.440834e+00 1.467990e+01 -6.775000e+01
      vertex   7.801217e+00 1.569456e+01 -6.536410e+01
      vertex   7.955901e+00 1.415513e+01 -6.536410e+01
    endloop
  endfacet
  facet normal 6.948093e-01 2.264050e-01 -6.826278e-01
    outer loop
      vertex   5.440834e+00 1.467990e+01 -6.775000e+01
      vertex   7.955901e+00 1.415513e+01 -6.536410e+01
      vertex   5.538436e+00 1.370855e+01 -6.797282e+01
    endloop
  endfacet
  facet normal 6.733239e-01 3.007013e-01 -6.754359e-01
    outer loop
      vertex   5.538436e+00 1.370855e+01 -6.797282e+01
      vertex   7.955901e+00 1.415513e+01 -6.536410e+01
      vertex   8.102204e+00 1.269910e+01 -6.586647e+01
    endloop
  endfacet
  facet normal 6.580838e-01 5.038256e-01 -5.595403e-01
    outer loop
      vertex   5.538436e+00 1.370855e+01 -6.797282e+01
      vertex   8.102204e+00 1.269910e+01 -6.586647e+01
      vertex   8.224272e+00 1.148427e+01 -6.681678e+01
    endloop
  endfacet
  facet normal 6.596578e-01 5.092754e-01 -5.527116e-01
    outer loop
      vertex   5.538436e+00 1.370855e+01 -6.797282e+01
      vertex   8.224272e+00 1.148427e+01 -6.681678e+01
      vertex   5.616707e+00 1.292959e+01 -6.859715e+01
    endloop
  endfacet
  facet normal 6.358311e-01 6.654363e-01 -3.910414e-01
    outer loop
      vertex   5.616707e+00 1.292959e+01 -6.859715e+01
      vertex   8.224272e+00 1.148427e+01 -6.681678e+01
      vertex   8.308876e+00 1.064228e+01 -6.811203e+01
    endloop
  endfacet
  facet normal 6.481134e-01 6.984648e-01 -3.034732e-01
    outer loop
      vertex   5.616707e+00 1.292959e+01 -6.859715e+01
      vertex   8.308876e+00 1.064228e+01 -6.811203e+01
      vertex   5.660144e+00 1.249730e+01 -6.949933e+01
    endloop
  endfacet
  facet normal 6.248457e-01 7.606875e-01 -1.758474e-01
    outer loop
      vertex   5.660144e+00 1.249730e+01 -6.949933e+01
      vertex   8.308876e+00 1.064228e+01 -6.811203e+01
      vertex   8.346848e+00 1.026437e+01 -6.961188e+01
    endloop
  endfacet
  facet normal 6.391730e-01 7.690630e-01 0.000000e+00
    outer loop
      vertex   5.660144e+00 1.249730e+01 -6.949933e+01
      vertex   8.346848e+00 1.026437e+01 -6.961188e+01
      vertex   5.660144e+00 1.249730e+01 -7.050067e+01
    endloop
  endfacet
  facet normal 6.264694e-01 7.772181e-01 5.888955e-02
    outer loop
      vertex   5.660144e+00 1.249730e+01 -7.050067e+01
      vertex   8.346848e+00 1.026437e+01 -6.961188e+01
      vertex   8.334075e+00 1.039149e+01 -7.115378e+01
    endloop
  endfacet
  facet normal 6.350265e-01 7.178203e-01 2.854390e-01
    outer loop
      vertex   5.660144e+00 1.249730e+01 -7.050067e+01
      vertex   8.334075e+00 1.039149e+01 -7.115378e+01
      vertex   8.271939e+00 1.100988e+01 -7.257066e+01
    endloop
  endfacet
  facet normal 6.424887e-01 7.026550e-01 3.057518e-01
    outer loop
      vertex   5.660144e+00 1.249730e+01 -7.050067e+01
      vertex   8.271939e+00 1.100988e+01 -7.257066e+01
      vertex   5.616707e+00 1.292959e+01 -7.140285e+01
    endloop
  endfacet
  facet normal 6.423828e-01 5.936764e-01 4.846573e-01
    outer loop
      vertex   5.616707e+00 1.292959e+01 -7.140285e+01
      vertex   8.271939e+00 1.100988e+01 -7.257066e+01
      vertex   8.167174e+00 1.205251e+01 -7.370896e+01
    endloop
  endfacet
  facet normal 6.679042e-01 5.051633e-01 5.465473e-01
    outer loop
      vertex   5.616707e+00 1.292959e+01 -7.140285e+01
      vertex   8.167174e+00 1.205251e+01 -7.370896e+01
      vertex   5.538436e+00 1.370855e+01 -7.202718e+01
    endloop
  endfacet
  facet normal 6.604790e-01 4.088838e-01 6.297472e-01
    outer loop
      vertex   5.538436e+00 1.370855e+01 -7.202718e+01
      vertex   8.167174e+00 1.205251e+01 -7.370896e+01
      vertex   8.031134e+00 1.340640e+01 -7.444534e+01
    endloop
  endfacet
  facet normal 6.921806e-01 2.267278e-01 6.851864e-01
    outer loop
      vertex   5.538436e+00 1.370855e+01 -7.202718e+01
      vertex   8.031134e+00 1.340640e+01 -7.444534e+01
      vertex   5.440834e+00 1.467990e+01 -7.225000e+01
    endloop
  endfacet
  facet normal 1.942191e-02 -1.932895e-01 9.809495e-01
    outer loop
      vertex   4.656485e+00 1.546293e+01 -7.208018e+01
      vertex   4.576844e+00 1.459309e+01 -7.225000e+01
      vertex   5.440834e+00 1.467990e+01 -7.225000e+01
    endloop
  endfacet
  facet normal -1.973324e-02 1.963879e-01 9.803277e-01
    outer loop
      vertex   5.440834e+00 1.467990e+01 -7.225000e+01
      vertex   4.576844e+00 1.459309e+01 -7.225000e+01
      vertex   4.658933e+00 1.372623e+01 -7.207469e+01
    endloop
  endfacet
  facet normal -4.825256e-02 2.187165e-01 9.745947e-01
    outer loop
      vertex   5.440834e+00 1.467990e+01 -7.225000e+01
      vertex   4.658933e+00 1.372623e+01 -7.207469e+01
      vertex   5.538436e+00 1.370855e+01 -7.202718e+01
    endloop
  endfacet
  facet normal -3.332574e-02 5.624650e-01 8.261492e-01
    outer loop
      vertex   5.538436e+00 1.370855e+01 -7.202718e+01
      vertex   4.658933e+00 1.372623e+01 -7.207469e+01
      vertex   4.849362e+00 1.300965e+01 -7.157914e+01
    endloop
  endfacet
  facet normal -1.152904e-01 6.141538e-01 7.807197e-01
    outer loop
      vertex   5.538436e+00 1.370855e+01 -7.202718e+01
      vertex   4.849362e+00 1.300965e+01 -7.157914e+01
      vertex   5.616707e+00 1.292959e+01 -7.140285e+01
    endloop
  endfacet
  facet normal -3.679972e-02 8.398547e-01 5.415624e-01
    outer loop
      vertex   5.616707e+00 1.292959e+01 -7.140285e+01
      vertex   4.849362e+00 1.300965e+01 -7.157914e+01
      vertex   5.030430e+00 1.254063e+01 -7.083949e+01
    endloop
  endfacet
  facet normal -1.717516e-01 8.851691e-01 4.324085e-01
    outer loop
      vertex   5.616707e+00 1.292959e+01 -7.140285e+01
      vertex   5.030430e+00 1.254063e+01 -7.083949e+01
      vertex   5.660144e+00 1.249730e+01 -7.050067e+01
    endloop
  endfacet
  facet normal -2.808918e-02 9.836310e-01 1.779918e-01
    outer loop
      vertex   5.660144e+00 1.249730e+01 -7.050067e+01
      vertex   5.030430e+00 1.254063e+01 -7.083949e+01
      vertex   5.099878e+00 1.238458e+01 -6.996616e+01
    endloop
  endfacet
  facet normal -1.972417e-01 9.803549e-01 0.000000e+00
    outer loop
      vertex   5.660144e+00 1.249730e+01 -7.050067e+01
      vertex   5.099878e+00 1.238458e+01 -6.996616e+01
      vertex   5.660144e+00 1.249730e+01 -6.949933e+01
    endloop
  endfacet
  facet normal -2.407251e-02 9.779899e-01 -2.072592e-01
    outer loop
      vertex   5.660144e+00 1.249730e+01 -6.949933e+01
      vertex   5.099878e+00 1.238458e+01 -6.996616e+01
      vertex   5.019047e+00 1.256721e+01 -6.909498e+01
    endloop
  endfacet
  facet normal -1.761821e-01 8.843788e-01 -4.322431e-01
    outer loop
      vertex   5.660144e+00 1.249730e+01 -6.949933e+01
      vertex   5.019047e+00 1.256721e+01 -6.909498e+01
      vertex   5.616707e+00 1.292959e+01 -6.859715e+01
    endloop
  endfacet
  facet normal -2.826258e-02 8.240045e-01 -5.658780e-01
    outer loop
      vertex   5.616707e+00 1.292959e+01 -6.859715e+01
      vertex   5.019047e+00 1.256721e+01 -6.909498e+01
      vertex   4.833803e+00 1.305606e+01 -6.837390e+01
    endloop
  endfacet
  facet normal -1.234995e-01 6.130304e-01 -7.803471e-01
    outer loop
      vertex   5.616707e+00 1.292959e+01 -6.859715e+01
      vertex   4.833803e+00 1.305606e+01 -6.837390e+01
      vertex   5.538436e+00 1.370855e+01 -6.797282e+01
    endloop
  endfacet
  facet normal -1.976706e-02 5.389651e-01 -8.420961e-01
    outer loop
      vertex   5.538436e+00 1.370855e+01 -6.797282e+01
      vertex   4.833803e+00 1.305606e+01 -6.837390e+01
      vertex   4.647086e+00 1.379141e+01 -6.789887e+01
    endloop
  endfacet
  facet normal -6.062057e-02 2.173837e-01 -9.742020e-01
    outer loop
      vertex   5.538436e+00 1.370855e+01 -6.797282e+01
      vertex   4.647086e+00 1.379141e+01 -6.789887e+01
      vertex   5.440834e+00 1.467990e+01 -6.775000e+01
    endloop
  endfacet
  facet normal -2.481474e-03 1.674018e-01 -9.858856e-01
    outer loop
      vertex   5.440834e+00 1.467990e+01 -6.775000e+01
      vertex   4.647086e+00 1.379141e+01 -6.789887e+01
      vertex   4.577382e+00 1.466088e+01 -6.775106e+01
    endloop
  endfacet
  facet normal 6.103460e-03 -2.229987e-01 -9.747996e-01
    outer loop
      vertex   5.440834e+00 1.467990e+01 -6.775000e+01
      vertex   4.577382e+00 1.466088e+01 -6.775106e+01
      vertex   5.343232e+00 1.565125e+01 -6.797282e+01
    endloop
  endfacet
  facet normal 3.307571e-03 -2.209444e-01 -9.752808e-01
    outer loop
      vertex   5.343232e+00 1.565125e+01 -6.797282e+01
      vertex   4.577382e+00 1.466088e+01 -6.775106e+01
      vertex   4.668606e+00 1.552799e+01 -6.794718e+01
    endloop
  endfacet
  facet normal 7.399275e-02 -5.745198e-01 -8.151393e-01
    outer loop
      vertex   5.343232e+00 1.565125e+01 -6.797282e+01
      vertex   4.668606e+00 1.552799e+01 -6.794718e+01
      vertex   4.855081e+00 1.624916e+01 -6.843855e+01
    endloop
  endfacet
  facet normal -2.455180e-02 -6.267157e-01 -7.788611e-01
    outer loop
      vertex   5.343232e+00 1.565125e+01 -6.797282e+01
      vertex   4.855081e+00 1.624916e+01 -6.843855e+01
      vertex   5.264962e+00 1.643021e+01 -6.859715e+01
    endloop
  endfacet
  facet normal 1.672618e-01 -8.362100e-01 -5.222799e-01
    outer loop
      vertex   5.264962e+00 1.643021e+01 -6.859715e+01
      vertex   4.855081e+00 1.624916e+01 -6.843855e+01
      vertex   5.031479e+00 1.673935e+01 -6.916688e+01
    endloop
  endfacet
  facet normal -1.567578e-01 -8.935886e-01 -4.206262e-01
    outer loop
      vertex   5.264962e+00 1.643021e+01 -6.859715e+01
      vertex   5.031479e+00 1.673935e+01 -6.916688e+01
      vertex   5.221525e+00 1.686250e+01 -6.949933e+01
    endloop
  endfacet
  facet normal 3.347357e-01 -9.297956e-01 -1.530757e-01
    outer loop
      vertex   5.221525e+00 1.686250e+01 -6.949933e+01
      vertex   5.031479e+00 1.673935e+01 -6.916688e+01
      vertex   5.099878e+00 1.690670e+01 -7.003383e+01
    endloop
  endfacet
  facet normal -3.415250e-01 -9.398727e-01 -0.000000e+00
    outer loop
      vertex   5.221525e+00 1.686250e+01 -6.949933e+01
      vertex   5.099878e+00 1.690670e+01 -7.003383e+01
      vertex   5.221525e+00 1.686250e+01 -7.050067e+01
    endloop
  endfacet
  facet normal 3.442375e-01 -9.220466e-01 1.770044e-01
    outer loop
      vertex   5.221525e+00 1.686250e+01 -7.050067e+01
      vertex   5.099878e+00 1.690670e+01 -7.003383e+01
      vertex   5.020358e+00 1.671117e+01 -7.089776e+01
    endloop
  endfacet
  facet normal -1.579199e-01 -8.934431e-01 4.205005e-01
    outer loop
      vertex   5.221525e+00 1.686250e+01 -7.050067e+01
      vertex   5.020358e+00 1.671117e+01 -7.089776e+01
      vertex   5.264962e+00 1.643021e+01 -7.140285e+01
    endloop
  endfacet
  facet normal 1.793842e-01 -8.202575e-01 5.431381e-01
    outer loop
      vertex   5.264962e+00 1.643021e+01 -7.140285e+01
      vertex   5.020358e+00 1.671117e+01 -7.089776e+01
      vertex   4.840046e+00 1.620180e+01 -7.160746e+01
    endloop
  endfacet
  facet normal -3.741719e-02 -6.272518e-01 7.779172e-01
    outer loop
      vertex   5.264962e+00 1.643021e+01 -7.140285e+01
      vertex   4.840046e+00 1.620180e+01 -7.160746e+01
      vertex   5.343232e+00 1.565125e+01 -7.202718e+01
    endloop
  endfacet
  facet normal 8.743166e-02 -5.521832e-01 8.291257e-01
    outer loop
      vertex   5.343232e+00 1.565125e+01 -7.202718e+01
      vertex   4.840046e+00 1.620180e+01 -7.160746e+01
      vertex   4.656485e+00 1.546293e+01 -7.208018e+01
    endloop
  endfacet
  facet normal -1.353218e-02 -2.248566e-01 9.742979e-01
    outer loop
      vertex   5.343232e+00 1.565125e+01 -7.202718e+01
      vertex   4.656485e+00 1.546293e+01 -7.208018e+01
      vertex   5.440834e+00 1.467990e+01 -7.225000e+01
    endloop
  endfacet
  facet normal -8.646931e-01 -1.882545e-02 5.019477e-01
    outer loop
      vertex   4.656485e+00 1.546293e+01 -7.208018e+01
      vertex   4.850388e+00 2.000000e+01 -7.157599e+01
      vertex   4.576844e+00 1.459309e+01 -7.225000e+01
    endloop
  endfacet
  facet normal -8.909474e-01 -1.151521e-02 4.539604e-01
    outer loop
      vertex   4.576844e+00 1.459309e+01 -7.225000e+01
      vertex   4.850388e+00 2.000000e+01 -7.157599e+01
      vertex   4.125987e+00 2.000000e+01 -7.299770e+01
    endloop
  endfacet
  facet normal -8.563619e-01 0.000000e+00 5.163762e-01
    outer loop
      vertex   4.576844e+00 1.459309e+01 -7.225000e+01
      vertex   4.125987e+00 2.000000e+01 -7.299770e+01
      vertex   4.125987e+00 0.000000e+00 -7.299770e+01
    endloop
  endfacet
  facet normal -7.071068e-01 0.000000e+00 7.071068e-01
    outer loop
      vertex   4.125987e+00 0.000000e+00 -7.299770e+01
      vertex   4.125987e+00 2.000000e+01 -7.299770e+01
      vertex   2.997705e+00 0.000000e+00 -7.412599e+01
    endloop
  endfacet
  facet normal -7.071068e-01 0.000000e+00 7.071068e-01
    outer loop
      vertex   2.997705e+00 0.000000e+00 -7.412599e+01
      vertex   4.125987e+00 2.000000e+01 -7.299770e+01
      vertex   2.997705e+00 2.000000e+01 -7.412599e+01
    endloop
  endfacet
  facet normal -4.539905e-01 0.000000e+00 8.910065e-01
    outer loop
      vertex   2.997705e+00 0.000000e+00 -7.412599e+01
      vertex   2.997705e+00 2.000000e+01 -7.412599e+01
      vertex   1.575987e+00 0.000000e+00 -7.485039e+01
    endloop
  endfacet
  facet normal -4.539905e-01 0.000000e+00 8.910065e-01
    outer loop
      vertex   1.575987e+00 0.000000e+00 -7.485039e+01
      vertex   2.997705e+00 2.000000e+01 -7.412599e+01
      vertex   1.575987e+00 2.000000e+01 -7.485039e+01
    endloop
  endfacet
  facet normal -1.564345e-01 0.000000e+00 9.876883e-01
    outer loop
      vertex   1.575987e+00 0.000000e+00 -7.485039e+01
      vertex   1.575987e+00 2.000000e+01 -7.485039e+01
      vertex   9.368548e-16 0.000000e+00 -7.510000e+01
    endloop
  endfacet
  facet normal -1.564345e-01 0.000000e+00 9.876883e-01
    outer loop
      vertex   9.368548e-16 0.000000e+00 -7.510000e+01
      vertex   1.575987e+00 2.000000e+01 -7.485039e+01
      vertex   9.368548e-16 2.000000e+01 -7.510000e+01
    endloop
  endfacet
  facet normal 1.564345e-01 -0.000000e+00 9.876883e-01
    outer loop
      vertex   9.368548e-16 0.000000e+00 -7.510000e+01
      vertex   9.368548e-16 2.000000e+01 -7.510000e+01
      vertex   -1.575987e+00 0.000000e+00 -7.485039e+01
    endloop
  endfacet
  facet normal 1.564345e-01 -0.000000e+00 9.876883e-01
    outer loop
      vertex   -1.575987e+00 0.000000e+00 -7.485039e+01
      vertex   9.368548e-16 2.000000e+01 -7.510000e+01
      vertex   -1.575987e+00 2.000000e+01 -7.485039e+01
    endloop
  endfacet
  facet normal 4.539905e-01 -0.000000e+00 8.910065e-01
    outer loop
      vertex   -1.575987e+00 0.000000e+00 -7.485039e+01
      vertex   -1.575987e+00 2.000000e+01 -7.485039e+01
      vertex   -2.997705e+00 0.000000e+00 -7.412599e+01
    endloop
  endfacet
  facet normal 4.539905e-01 -0.000000e+00 8.910065e-01
    outer loop
      vertex   -2.997705e+00 0.000000e+00 -7.412599e+01
      vertex   -1.575987e+00 2.000000e+01 -7.485039e+01
      vertex   -2.997705e+00 2.000000e+01 -7.412599e+01
    endloop
  endfacet
  facet normal 7.071068e-01 -0.000000e+00 7.071068e-01
    outer loop
      vertex   -2.997705e+00 0.000000e+00 -7.412599e+01
      vertex   -2.997705e+00 2.000000e+01 -7.412599e+01
      vertex   -4.125987e+00 0.000000e+00 -7.299770e+01
    endloop
  endfacet
  facet normal 7.071068e-01 -0.000000e+00 7.071068e-01
    outer loop
      vertex   -4.125987e+00 0.000000e+00 -7.299770e+01
      vertex   -2.997705e+00 2.000000e+01 -7.412599e+01
      vertex   -4.125987e+00 2.000000e+01 -7.299770e+01
    endloop
  endfacet
  facet normal 8.910065e-01 -0.000000e+00 4.539905e-01
    outer loop
      vertex   -4.125987e+00 0.000000e+00 -7.299770e+01
      vertex   -4.125987e+00 2.000000e+01 -7.299770e+01
      vertex   -4.850388e+00 0.000000e+00 -7.157599e+01
    endloop
  endfacet
  facet normal 8.910065e-01 -0.000000e+00 4.539905e-01
    outer loop
      vertex   -4.850388e+00 0.000000e+00 -7.157599e+01
      vertex   -4.125987e+00 2.000000e+01 -7.299770e+01
      vertex   -4.850388e+00 2.000000e+01 -7.157599e+01
    endloop
  endfacet
  facet normal 9.876883e-01 -0.000000e+00 1.564345e-01
    outer loop
      vertex   -4.850388e+00 0.000000e+00 -7.157599e+01
      vertex   -4.850388e+00 2.000000e+01 -7.157599e+01
      vertex   -5.100000e+00 0.000000e+00 -7.000000e+01
    endloop
  endfacet
  facet normal 9.876883e-01 -0.000000e+00 1.564345e-01
    outer loop
      vertex   -5.100000e+00 0.000000e+00 -7.000000e+01
      vertex   -4.850388e+00 2.000000e+01 -7.157599e+01
      vertex   -5.100000e+00 2.000000e+01 -7.000000e+01
    endloop
  endfacet
  facet normal 9.876883e-01 0.000000e+00 -1.564345e-01
    outer loop
      vertex   -5.100000e+00 0.000000e+00 -7.000000e+01
      vertex   -5.100000e+00 2.000000e+01 -7.000000e+01
      vertex   -4.850388e+00 0.000000e+00 -6.842401e+01
    endloop
  endfacet
  facet normal 9.876883e-01 0.000000e+00 -1.564345e-01
    outer loop
      vertex   -4.850388e+00 0.000000e+00 -6.842401e+01
      vertex   -5.100000e+00 2.000000e+01 -7.000000e+01
      vertex   -4.850388e+00 2.000000e+01 -6.842401e+01
    endloop
  endfacet
  facet normal 8.910065e-01 0.000000e+00 -4.539905e-01
    outer loop
      vertex   -4.850388e+00 0.000000e+00 -6.842401e+01
      vertex   -4.850388e+00 2.000000e+01 -6.842401e+01
      vertex   -4.125987e+00 0.000000e+00 -6.700230e+01
    endloop
  endfacet
  facet normal 8.910065e-01 0.000000e+00 -4.539905e-01
    outer loop
      vertex   -4.125987e+00 0.000000e+00 -6.700230e+01
      vertex   -4.850388e+00 2.000000e+01 -6.842401e+01
      vertex   -4.125987e+00 2.000000e+01 -6.700230e+01
    endloop
  endfacet
  facet normal 7.071068e-01 0.000000e+00 -7.071068e-01
    outer loop
      vertex   -4.125987e+00 0.000000e+00 -6.700230e+01
      vertex   -4.125987e+00 2.000000e+01 -6.700230e+01
      vertex   -2.997705e+00 0.000000e+00 -6.587401e+01
    endloop
  endfacet
  facet normal 7.071068e-01 0.000000e+00 -7.071068e-01
    outer loop
      vertex   -2.997705e+00 0.000000e+00 -6.587401e+01
      vertex   -4.125987e+00 2.000000e+01 -6.700230e+01
      vertex   -2.997705e+00 2.000000e+01 -6.587401e+01
    endloop
  endfacet
  facet normal 4.539905e-01 0.000000e+00 -8.910065e-01
    outer loop
      vertex   -2.997705e+00 0.000000e+00 -6.587401e+01
      vertex   -2.997705e+00 2.000000e+01 -6.587401e+01
      vertex   -1.575987e+00 0.000000e+00 -6.514961e+01
    endloop
  endfacet
  facet normal 4.539905e-01 0.000000e+00 -8.910065e-01
    outer loop
      vertex   -1.575987e+00 0.000000e+00 -6.514961e+01
      vertex   -2.997705e+00 2.000000e+01 -6.587401e+01
      vertex   -1.575987e+00 2.000000e+01 -6.514961e+01
    endloop
  endfacet
  facet normal 1.564345e-01 0.000000e+00 -9.876883e-01
    outer loop
      vertex   -1.575987e+00 0.000000e+00 -6.514961e+01
      vertex   -1.575987e+00 2.000000e+01 -6.514961e+01
      vertex   -3.122849e-16 0.000000e+00 -6.490000e+01
    endloop
  endfacet
  facet normal 1.564345e-01 0.000000e+00 -9.876883e-01
    outer loop
      vertex   -3.122849e-16 0.000000e+00 -6.490000e+01
      vertex   -1.575987e+00 2.000000e+01 -6.514961e+01
      vertex   -3.122849e-16 2.000000e+01 -6.490000e+01
    endloop
  endfacet
  facet normal -1.564345e-01 0.000000e+00 -9.876883e-01
    outer loop
      vertex   -3.122849e-16 0.000000e+00 -6.490000e+01
      vertex   -3.122849e-16 2.000000e+01 -6.490000e+01
      vertex   1.575987e+00 0.000000e+00 -6.514961e+01
    endloop
  endfacet
  facet normal -1.564345e-01 0.000000e+00 -9.876883e-01
    outer loop
      vertex   1.575987e+00 0.000000e+00 -6.514961e+01
      vertex   -3.122849e-16 2.000000e+01 -6.490000e+01
      vertex   1.575987e+00 2.000000e+01 -6.514961e+01
    endloop
  endfacet
  facet normal -4.539905e-01 0.000000e+00 -8.910065e-01
    outer loop
      vertex   1.575987e+00 0.000000e+00 -6.514961e+01
      vertex   1.575987e+00 2.000000e+01 -6.514961e+01
      vertex   2.997705e+00 0.000000e+00 -6.587401e+01
    endloop
  endfacet
  facet normal -4.539905e-01 0.000000e+00 -8.910065e-01
    outer loop
      vertex   2.997705e+00 0.000000e+00 -6.587401e+01
      vertex   1.575987e+00 2.000000e+01 -6.514961e+01
      vertex   2.997705e+00 2.000000e+01 -6.587401e+01
    endloop
  endfacet
  facet normal -7.071068e-01 0.000000e+00 -7.071068e-01
    outer loop
      vertex   2.997705e+00 0.000000e+00 -6.587401e+01
      vertex   2.997705e+00 2.000000e+01 -6.587401e+01
      vertex   4.125987e+00 0.000000e+00 -6.700230e+01
    endloop
  endfacet
  facet normal -7.071068e-01 0.000000e+00 -7.071068e-01
    outer loop
      vertex   4.125987e+00 0.000000e+00 -6.700230e+01
      vertex   2.997705e+00 2.000000e+01 -6.587401e+01
      vertex   4.125987e+00 2.000000e+01 -6.700230e+01
    endloop
  endfacet
  facet normal -8.564118e-01 0.000000e+00 -5.162934e-01
    outer loop
      vertex   4.125987e+00 0.000000e+00 -6.700230e+01
      vertex   4.125987e+00 2.000000e+01 -6.700230e+01
      vertex   4.577382e+00 1.466088e+01 -6.775106e+01
    endloop
  endfacet
  facet normal -8.879520e-01 -1.058725e-02 -4.598142e-01
    outer loop
      vertex   4.577382e+00 1.466088e+01 -6.775106e+01
      vertex   4.125987e+00 2.000000e+01 -6.700230e+01
      vertex   4.668606e+00 1.552799e+01 -6.794718e+01
    endloop
  endfacet
  facet normal -8.909403e-01 -1.218745e-02 -4.539568e-01
    outer loop
      vertex   4.668606e+00 1.552799e+01 -6.794718e+01
      vertex   4.125987e+00 2.000000e+01 -6.700230e+01
      vertex   4.850388e+00 2.000000e+01 -6.842401e+01
    endloop
  endfacet
  facet normal -9.350368e-01 2.042198e-04 -3.545506e-01
    outer loop
      vertex   4.668606e+00 1.552799e+01 -6.794718e+01
      vertex   4.850388e+00 2.000000e+01 -6.842401e+01
      vertex   4.855081e+00 1.624916e+01 -6.843855e+01
    endloop
  endfacet
  facet normal -9.718542e-01 -3.029143e-04 -2.355831e-01
    outer loop
      vertex   4.855081e+00 1.624916e+01 -6.843855e+01
      vertex   4.850388e+00 2.000000e+01 -6.842401e+01
      vertex   5.031479e+00 1.673935e+01 -6.916688e+01
    endloop
  endfacet
  facet normal -9.875061e-01 -1.921094e-02 -1.564056e-01
    outer loop
      vertex   5.031479e+00 1.673935e+01 -6.916688e+01
      vertex   4.850388e+00 2.000000e+01 -6.842401e+01
      vertex   5.100000e+00 2.000000e+01 -7.000000e+01
    endloop
  endfacet
  facet normal -9.969153e-01 8.976099e-04 -7.847922e-02
    outer loop
      vertex   5.031479e+00 1.673935e+01 -6.916688e+01
      vertex   5.100000e+00 2.000000e+01 -7.000000e+01
      vertex   5.099878e+00 1.690670e+01 -7.003383e+01
    endloop
  endfacet
  facet normal -9.957702e-01 -9.655884e-04 9.187387e-02
    outer loop
      vertex   5.099878e+00 1.690670e+01 -7.003383e+01
      vertex   5.100000e+00 2.000000e+01 -7.000000e+01
      vertex   5.020358e+00 1.671117e+01 -7.089776e+01
    endloop
  endfacet
  facet normal -9.875141e-01 -1.878117e-02 1.564069e-01
    outer loop
      vertex   5.020358e+00 1.671117e+01 -7.089776e+01
      vertex   5.100000e+00 2.000000e+01 -7.000000e+01
      vertex   4.850388e+00 2.000000e+01 -7.157599e+01
    endloop
  endfacet
  facet normal -9.693109e-01 6.021077e-04 2.458374e-01
    outer loop
      vertex   5.020358e+00 1.671117e+01 -7.089776e+01
      vertex   4.850388e+00 2.000000e+01 -7.157599e+01
      vertex   4.840046e+00 1.620180e+01 -7.160746e+01
    endloop
  endfacet
  facet normal -9.319404e-01 -4.673265e-04 3.626111e-01
    outer loop
      vertex   4.840046e+00 1.620180e+01 -7.160746e+01
      vertex   4.850388e+00 2.000000e+01 -7.157599e+01
      vertex   4.656485e+00 1.546293e+01 -7.208018e+01
    endloop
  endfacet
  facet normal -8.937347e-01 4.607796e-03 -4.485722e-01
    outer loop
      vertex   4.577382e+00 1.466088e+01 -6.775106e+01
      vertex   4.647086e+00 1.379141e+01 -6.789887e+01
      vertex   4.125987e+00 0.000000e+00 -6.700230e+01
    endloop
  endfacet
  facet normal -8.909988e-01 4.152439e-03 -4.539866e-01
    outer loop
      vertex   4.125987e+00 0.000000e+00 -6.700230e+01
      vertex   4.647086e+00 1.379141e+01 -6.789887e+01
      vertex   4.850388e+00 0.000000e+00 -6.842401e+01
    endloop
  endfacet
  facet normal -9.305687e-01 2.232633e-04 -3.661174e-01
    outer loop
      vertex   4.850388e+00 0.000000e+00 -6.842401e+01
      vertex   4.647086e+00 1.379141e+01 -6.789887e+01
      vertex   4.833803e+00 1.305606e+01 -6.837390e+01
    endloop
  endfacet
  facet normal -9.685952e-01 -2.759891e-04 -2.486427e-01
    outer loop
      vertex   4.850388e+00 0.000000e+00 -6.842401e+01
      vertex   4.833803e+00 1.305606e+01 -6.837390e+01
      vertex   5.019047e+00 1.256721e+01 -6.909498e+01
    endloop
  endfacet
  facet normal -9.876765e-01 4.903188e-03 -1.564326e-01
    outer loop
      vertex   4.850388e+00 0.000000e+00 -6.842401e+01
      vertex   5.019047e+00 1.256721e+01 -6.909498e+01
      vertex   5.100000e+00 0.000000e+00 -7.000000e+01
    endloop
  endfacet
  facet normal -9.957185e-01 2.428028e-04 -9.243752e-02
    outer loop
      vertex   5.100000e+00 0.000000e+00 -7.000000e+01
      vertex   5.019047e+00 1.256721e+01 -6.909498e+01
      vertex   5.099878e+00 1.238458e+01 -6.996616e+01
    endloop
  endfacet
  facet normal -9.968563e-01 -2.263467e-04 7.922992e-02
    outer loop
      vertex   5.100000e+00 0.000000e+00 -7.000000e+01
      vertex   5.099878e+00 1.238458e+01 -6.996616e+01
      vertex   5.030430e+00 1.254063e+01 -7.083949e+01
    endloop
  endfacet
  facet normal -9.876760e-01 4.992627e-03 1.564325e-01
    outer loop
      vertex   5.100000e+00 0.000000e+00 -7.000000e+01
      vertex   5.030430e+00 1.254063e+01 -7.083949e+01
      vertex   4.850388e+00 0.000000e+00 -7.157599e+01
    endloop
  endfacet
  facet normal -9.713218e-01 -1.897089e-05 2.377688e-01
    outer loop
      vertex   4.850388e+00 0.000000e+00 -7.157599e+01
      vertex   5.030430e+00 1.254063e+01 -7.083949e+01
      vertex   4.849362e+00 1.300965e+01 -7.157914e+01
    endloop
  endfacet
  facet normal -9.334445e-01 1.335670e-05 3.587218e-01
    outer loop
      vertex   4.850388e+00 0.000000e+00 -7.157599e+01
      vertex   4.849362e+00 1.300965e+01 -7.157914e+01
      vertex   4.658933e+00 1.372623e+01 -7.207469e+01
    endloop
  endfacet
  facet normal -8.991452e-01 3.358950e-03 4.376375e-01
    outer loop
      vertex   4.658933e+00 1.372623e+01 -7.207469e+01
      vertex   4.576844e+00 1.459309e+01 -7.225000e+01
      vertex   4.850388e+00 0.000000e+00 -7.157599e+01
    endloop
  endfacet
  facet normal -8.909984e-01 4.266766e-03 4.539864e-01
    outer loop
      vertex   4.850388e+00 0.000000e+00 -7.157599e+01
      vertex   4.576844e+00 1.459309e+01 -7.225000e+01
      vertex   4.125987e+00 0.000000e+00 -7.299770e+01
    endloop
  endfacet
  facet normal 0.000000e+00 -1.000000e+00 0.000000e+00
    outer loop
      vertex   -5.100000e+00 2.000000e+01 -7.000000e+01
      vertex   -4.850388e+00 2.000000e+01 -7.157599e+01
      vertex   -4.850388e+00 2.000000e+01 -6.842401e+01
    endloop
  endfacet
  facet normal 0.000000e+00 -1.000000e+00 0.000000e+00
    outer loop
      vertex   -4.850388e+00 2.000000e+01 -6.842401e+01
      vertex   -4.850388e+00 2.000000e+01 -7.157599e+01
      vertex   -4.125987e+00 2.000000e+01 -6.700230e+01
    endloop
  endfacet
  facet normal 0.000000e+00 -1.000000e+00 -0.000000e+00
    outer loop
      vertex   -4.125987e+00 2.000000e+01 -6.700230e+01
      vertex   -4.850388e+00 2.000000e+01 -7.157599e+01
      vertex   -4.125987e+00 2.000000e+01 -7.299770e+01
    endloop
  endfacet
  facet normal 0.000000e+00 -1.000000e+00 0.000000e+00
    outer loop
      vertex   -4.125987e+00 2.000000e+01 -6.700230e+01
      vertex   -4.125987e+00 2.000000e+01 -7.299770e+01
      vertex   -2.997705e+00 2.000000e+01 -6.587401e+01
    endloop
  endfacet
  facet normal 0.000000e+00 -1.000000e+00 -0.000000e+00
    outer loop
      vertex   -2.997705e+00 2.000000e+01 -6.587401e+01
      vertex   -4.125987e+00 2.000000e+01 -7.299770e+01
      vertex   -2.997705e+00 2.000000e+01 -7.412599e+01
    endloop
  endfacet
  facet normal 0.000000e+00 -1.000000e+00 0.000000e+00
    outer loop
      vertex   -2.997705e+00 2.000000e+01 -6.587401e+01
      vertex   -2.997705e+00 2.000000e+01 -7.412599e+01
      vertex   -1.575987e+00 2.000000e+01 -6.514961e+01
    endloop
  endfacet
  facet normal 0.000000e+00 -1.000000e+00 -0.000000e+00
    outer loop
      vertex   -1.575987e+00 2.000000e+01 -6.514961e+01
      vertex   -2.997705e+00 2.000000e+01 -7.412599e+01
      vertex   -1.575987e+00 2.000000e+01 -7.485039e+01
    endloop
  endfacet
  facet normal 0.000000e+00 -1.000000e+00 0.000000e+00
    outer loop
      vertex   -1.575987e+00 2.000000e+01 -6.514961e+01
      vertex   -1.575987e+00 2.000000e+01 -7.485039e+01
      vertex   -3.122849e-16 2.000000e+01 -6.490000e+01
    endloop
  endfacet
  facet normal 0.000000e+00 -1.000000e+00 -0.000000e+00
    outer loop
      vertex   -3.122849e-16 2.000000e+01 -6.490000e+01
      vertex   -1.575987e+00 2.000000e+01 -7.485039e+01
      vertex   9.368548e-16 2.000000e+01 -7.510000e+01
    endloop
  endfacet
  facet normal 0.000000e+00 -1.000000e+00 0.000000e+00
    outer loop
      vertex   -3.122849e-16 2.000000e+01 -6.490000e+01
      vertex   9.368548e-16 2.000000e+01 -7.510000e+01
      vertex   1.575987e+00 2.000000e+01 -6.514961e+01
    endloop
  endfacet
  facet normal 0.000000e+00 -1.000000e+00 -0.000000e+00
    outer loop
      vertex   1.575987e+00 2.000000e+01 -6.514961e+01
      vertex   9.368548e-16 2.000000e+01 -7.510000e+01
      vertex   1.575987e+00 2.000000e+01 -7.485039e+01
    endloop
  endfacet
  facet normal 0.000000e+00 -1.000000e+00 0.000000e+00
    outer loop
      vertex   1.575987e+00 2.000000e+01 -6.514961e+01
      vertex   1.575987e+00 2.000000e+01 -7.485039e+01
      vertex   2.997705e+00 2.000000e+01 -6.587401e+01
    endloop
  endfacet
  facet normal 0.000000e+00 -1.000000e+00 -0.000000e+00
    outer loop
      vertex   2.997705e+00 2.000000e+01 -6.587401e+01
      vertex   1.575987e+00 2.000000e+01 -7.485039e+01
      vertex   2.997705e+00 2.000000e+01 -7.412599e+01
    endloop
  endfacet
  facet normal 0.000000e+00 -1.000000e+00 0.000000e+00
    outer loop
      vertex   2.997705e+00 2.000000e+01 -6.587401e+01
      vertex   2.997705e+00 2.000000e+01 -7.412599e+01
      vertex   4.125987e+00 2.000000e+01 -6.700230e+01
    endloop
  endfacet
  facet normal 0.000000e+00 -1.000000e+00 -0.000000e+00
    outer loop
      vertex   4.125987e+00 2.000000e+01 -6.700230e+01
      vertex   2.997705e+00 2.000000e+01 -7.412599e+01
      vertex   4.125987e+00 2.000000e+01 -7.299770e+01
    endloop
  endfacet
  facet normal 0.000000e+00 -1.000000e+00 0.000000e+00
    outer loop
      vertex   4.125987e+00 2.000000e+01 -6.700230e+01
      vertex   4.125987e+00 2.000000e+01 -7.299770e+01
      vertex   4.850388e+00 2.000000e+01 -6.842401e+01
    endloop
  endfacet
  facet normal 0.000000e+00 -1.000000e+00 -0.000000e+00
    outer loop
      vertex   4.850388e+00 2.000000e+01 -6.842401e+01
      vertex   4.125987e+00 2.000000e+01 -7.299770e+01
      vertex   4.850388e+00 2.000000e+01 -7.157599e+01
    endloop
  endfacet
  facet normal 0.000000e+00 -1.000000e+00 0.000000e+00
    outer loop
      vertex   4.850388e+00 2.000000e+01 -6.842401e+01
      vertex   4.850388e+00 2.000000e+01 -7.157599e+01
      vertex   5.100000e+00 2.000000e+01 -7.000000e+01
    endloop
  endfacet
  facet normal -0.000000e+00 -1.000000e+00 0.000000e+00
    outer loop
      vertex   -4.850388e+00 0.000000e+00 -6.842401e+01
      vertex   -9.378222e+00 0.000000e+00 -3.500000e+01
      vertex   -5.100000e+00 0.000000e+00 -7.000000e+01
    endloop
  endfacet
  facet normal -0.000000e+00 -1.000000e+00 0.000000e+00
    outer loop
      vertex   -5.100000e+00 0.000000e+00 -7.000000e+01
      vertex   -9.378222e+00 0.000000e+00 -3.500000e+01
      vertex   -9.378222e+00 0.000000e+00 -1.050000e+02
    endloop
  endfacet
  facet normal 0.000000e+00 -1.000000e+00 -0.000000e+00
    outer loop
      vertex   -5.100000e+00 0.000000e+00 -7.000000e+01
      vertex   -9.378222e+00 0.000000e+00 -1.050000e+02
      vertex   -4.850388e+00 0.000000e+00 -7.157599e+01
    endloop
  endfacet
  facet normal 0.000000e+00 -1.000000e+00 -0.000000e+00
    outer loop
      vertex   -4.850388e+00 0.000000e+00 -7.157599e+01
      vertex   -9.378222e+00 0.000000e+00 -1.050000e+02
      vertex   -4.125987e+00 0.000000e+00 -7.299770e+01
    endloop
  endfacet
  facet normal 0.000000e+00 -1.000000e+00 -0.000000e+00
    outer loop
      vertex   -4.125987e+00 0.000000e+00 -7.299770e+01
      vertex   -9.378222e+00 0.000000e+00 -1.050000e+02
      vertex   -2.997705e+00 0.000000e+00 -7.412599e+01
    endloop
  endfacet
  facet normal 0.000000e+00 -1.000000e+00 -0.000000e+00
    outer loop
      vertex   -2.997705e+00 0.000000e+00 -7.412599e+01
      vertex   -9.378222e+00 0.000000e+00 -1.050000e+02
      vertex   0.000000e+00 0.000000e+00 -1.400000e+02
    endloop
  endfacet
  facet normal 0.000000e+00 -1.000000e+00 0.000000e+00
    outer loop
      vertex   -2.997705e+00 0.000000e+00 -7.412599e+01
      vertex   0.000000e+00 0.000000e+00 -1.400000e+02
      vertex   -1.575987e+00 0.000000e+00 -7.485039e+01
    endloop
  endfacet
  facet normal 0.000000e+00 -1.000000e+00 0.000000e+00
    outer loop
      vertex   -1.575987e+00 0.000000e+00 -7.485039e+01
      vertex   0.000000e+00 0.000000e+00 -1.400000e+02
      vertex   9.368548e-16 0.000000e+00 -7.510000e+01
    endloop
  endfacet
  facet normal 0.000000e+00 -1.000000e+00 -0.000000e+00
    outer loop
      vertex   9.368548e-16 0.000000e+00 -7.510000e+01
      vertex   0.000000e+00 0.000000e+00 -1.400000e+02
      vertex   1.575987e+00 0.000000e+00 -7.485039e+01
    endloop
  endfacet
  facet normal 0.000000e+00 -1.000000e+00 -0.000000e+00
    outer loop
      vertex   1.575987e+00 0.000000e+00 -7.485039e+01
      vertex   0.000000e+00 0.000000e+00 -1.400000e+02
      vertex   2.997705e+00 0.000000e+00 -7.412599e+01
    endloop
  endfacet
  facet normal 0.000000e+00 -1.000000e+00 -0.000000e+00
    outer loop
      vertex   2.997705e+00 0.000000e+00 -7.412599e+01
      vertex   0.000000e+00 0.000000e+00 -1.400000e+02
      vertex   9.378222e+00 0.000000e+00 -1.050000e+02
    endloop
  endfacet
  facet normal 0.000000e+00 -1.000000e+00 0.000000e+00
    outer loop
      vertex   2.997705e+00 0.000000e+00 -7.412599e+01
      vertex   9.378222e+00 0.000000e+00 -1.050000e+02
      vertex   4.125987e+00 0.000000e+00 -7.299770e+01
    endloop
  endfacet
  facet normal 0.000000e+00 -1.000000e+00 0.000000e+00
    outer loop
      vertex   4.125987e+00 0.000000e+00 -7.299770e+01
      vertex   9.378222e+00 0.000000e+00 -1.050000e+02
      vertex   4.850388e+00 0.000000e+00 -7.157599e+01
    endloop
  endfacet
  facet normal 0.000000e+00 -1.000000e+00 0.000000e+00
    outer loop
      vertex   4.850388e+00 0.000000e+00 -7.157599e+01
      vertex   9.378222e+00 0.000000e+00 -1.050000e+02
      vertex   5.100000e+00 0.000000e+00 -7.000000e+01
    endloop
  endfacet
  facet normal 0.000000e+00 -1.000000e+00 0.000000e+00
    outer loop
      vertex   5.100000e+00 0.000000e+00 -7.000000e+01
      vertex   9.378222e+00 0.000000e+00 -1.050000e+02
      vertex   9.378222e+00 0.000000e+00 -3.500000e+01
    endloop
  endfacet
  facet normal 0.000000e+00 -1.000000e+00 0.000000e+00
    outer loop
      vertex   5.100000e+00 0.000000e+00 -7.000000e+01
      vertex   9.378222e+00 0.000000e+00 -3.500000e+01
      vertex   4.850388e+00 0.000000e+00 -6.842401e+01
    endloop
  endfacet
  facet normal 0.000000e+00 -1.000000e+00 0.000000e+00
    outer loop
      vertex   4.850388e+00 0.000000e+00 -6.842401e+01
      vertex   9.378222e+00 0.000000e+00 -3.500000e+01
      vertex   4.125987e+00 0.000000e+00 -6.700230e+01
    endloop
  endfacet
  facet normal 0.000000e+00 -1.000000e+00 0.000000e+00
    outer loop
      vertex   4.125987e+00 0.000000e+00 -6.700230e+01
      vertex   9.378222e+00 0.000000e+00 -3.500000e+01
      vertex   2.997705e+00 0.000000e+00 -6.587401e+01
    endloop
  endfacet
  facet normal 0.000000e+00 -1.000000e+00 0.000000e+00
    outer loop
      vertex   2.997705e+00 0.000000e+00 -6.587401e+01
      vertex   9.378222e+00 0.000000e+00 -3.500000e+01
      vertex   1.110223e-15 0.000000e+00 0.000000e+00
    endloop
  endfacet
  facet normal 0.000000e+00 -1.000000e+00 0.000000e+00
    outer loop
      vertex   2.997705e+00 0.000000e+00 -6.587401e+01
      vertex   1.110223e-15 0.000000e+00 0.000000e+00
      vertex   1.575987e+00 0.000000e+00 -6.514961e+01
    endloop
  endfacet
  facet normal 0.000000e+00 -1.000000e+00 0.000000e+00
    outer loop
      vertex   1.575987e+00 0.000000e+00 -6.514961e+01
      vertex   1.110223e-15 0.000000e+00 0.000000e+00
      vertex   -3.122849e-16 0.000000e+00 -6.490000e+01
    endloop
  endfacet
  facet normal -0.000000e+00 -1.000000e+00 0.000000e+00
    outer loop
      vertex   -3.122849e-16 0.000000e+00 -6.490000e+01
      vertex   1.110223e-15 0.000000e+00 0.000000e+00
      vertex   -1.575987e+00 0.000000e+00 -6.514961e+01
    endloop
  endfacet
  facet normal -0.000000e+00 -1.000000e+00 0.000000e+00
    outer loop
      vertex   -1.575987e+00 0.000000e+00 -6.514961e+01
      vertex   1.110223e-15 0.000000e+00 0.000000e+00
      vertex   -2.997705e+00 0.000000e+00 -6.587401e+01
    endloop
  endfacet
  facet normal 0.000000e+00 -1.000000e+00 0.000000e+00
    outer loop
      vertex   -2.997705e+00 0.000000e+00 -6.587401e+01
      vertex   1.110223e-15 0.000000e+00 0.000000e+00
      vertex   -9.378222e+00 0.000000e+00 -3.500000e+01
    endloop
  endfacet
  facet normal -0.000000e+00 -1.000000e+00 0.000000e+00
    outer loop
      vertex   -2.997705e+00 0.000000e+00 -6.587401e+01
      vertex   -9.378222e+00 0.000000e+00 -3.500000e+01
      vertex   -4.125987e+00 0.000000e+00 -6.700230e+01
    endloop
  endfacet
  facet normal -0.000000e+00 -1.000000e+00 0.000000e+00
    outer loop
      vertex   -4.125987e+00 0.000000e+00 -6.700230e+01
      vertex   -9.378222e+00 0.000000e+00 -3.500000e+01
      vertex   -4.850388e+00 0.000000e+00 -6.842401e+01
    endloop
  endfacet
  facet normal 5.303563e-15 1.000000e+00 1.421085e-15
    outer loop
      vertex   -1.339746e+00 8.000000e+01 -1.164423e+02
      vertex   -1.339746e+00 8.000000e+01 -1.064423e+02
      vertex   -8.326673e-16 8.000000e+01 -1.214423e+02
    endloop
  endfacet
  facet normal -2.651782e-15 1.000000e+00 7.105427e-16
    outer loop
      vertex   -8.326673e-16 8.000000e+01 -1.214423e+02
      vertex   -1.339746e+00 8.000000e+01 -1.064423e+02
      vertex   0.000000e+00 8.000000e+01 -1.014423e+02
    endloop
  endfacet
  facet normal -2.651782e-15 1.000000e+00 7.105427e-16
    outer loop
      vertex   -8.326673e-16 8.000000e+01 -1.214423e+02
      vertex   0.000000e+00 8.000000e+01 -1.014423e+02
      vertex   1.339746e+00 8.000000e+01 -1.164423e+02
    endloop
  endfacet
  facet normal 5.303563e-15 1.000000e+00 1.421085e-15
    outer loop
      vertex   1.339746e+00 8.000000e+01 -1.164423e+02
      vertex   0.000000e+00 8.000000e+01 -1.014423e+02
      vertex   1.339746e+00 8.000000e+01 -1.064423e+02
    endloop
  endfacet
  facet normal -9.641896e-01 5.993072e-02 -2.583538e-01
    outer loop
      vertex   -1.339746e+00 8.000000e+01 -1.164423e+02
      vertex   -8.326673e-16 8.000000e+01 -1.214423e+02
      vertex   -9.378222e+00 0.000000e+00 -1.050000e+02
    endloop
  endfacet
  facet normal -9.641896e-01 5.993072e-02 -2.583538e-01
    outer loop
      vertex   -9.378222e+00 0.000000e+00 -1.050000e+02
      vertex   -8.326673e-16 8.000000e+01 -1.214423e+02
      vertex   0.000000e+00 0.000000e+00 -1.400000e+02
    endloop
  endfacet
  facet normal -9.949897e-01 9.997751e-02 1.420766e-16
    outer loop
      vertex   -1.339746e+00 8.000000e+01 -1.164423e+02
      vertex   -9.378222e+00 0.000000e+00 -1.050000e+02
      vertex   -1.339746e+00 8.000000e+01 -1.064423e+02
    endloop
  endfacet
  facet normal -9.949897e-01 9.997751e-02 4.039901e-17
    outer loop
      vertex   -1.339746e+00 8.000000e+01 -1.064423e+02
      vertex   -9.378222e+00 0.000000e+00 -1.050000e+02
      vertex   -9.378222e+00 0.000000e+00 -3.500000e+01
    endloop
  endfacet
  facet normal -9.177640e-01 3.118261e-01 2.459141e-01
    outer loop
      vertex   -1.339746e+00 8.000000e+01 -1.064423e+02
      vertex   -9.378222e+00 0.000000e+00 -3.500000e+01
      vertex   0.000000e+00 8.000000e+01 -1.014423e+02
    endloop
  endfacet
  facet normal -9.177640e-01 3.118261e-01 2.459141e-01
    outer loop
      vertex   0.000000e+00 8.000000e+01 -1.014423e+02
      vertex   -9.378222e+00 0.000000e+00 -3.500000e+01
      vertex   1.110223e-15 0.000000e+00 0.000000e+00
    endloop
  endfacet
  facet normal 9.177640e-01 3.118261e-01 2.459141e-01
    outer loop
      vertex   1.339746e+00 8.000000e+01 -1.064423e+02
      vertex   0.000000e+00 8.000000e+01 -1.014423e+02
      vertex   9.378222e+00 0.000000e+00 -3.500000e+01
    endloop
  endfacet
  facet normal 9.177640e-01 3.118261e-01 2.459141e-01
    outer loop
      vertex   9.378222e+00 0.000000e+00 -3.500000e+01
      vertex   0.000000e+00 8.000000e+01 -1.014423e+02
      vertex   1.110223e-15 0.000000e+00 0.000000e+00
    endloop
  endfacet
  facet normal 9.949897e-01 9.997751e-02 -4.082802e-16
    outer loop
      vertex   7.725985e+00 1.644329e+01 -7.444534e+01
      vertex   7.878559e+00 1.492485e+01 -7.470000e+01
      vertex   9.378222e+00 0.000000e+00 -1.050000e+02
    endloop
  endfacet
  facet normal 9.949897e-01 9.997751e-02 0.000000e+00
    outer loop
      vertex   9.378222e+00 0.000000e+00 -1.050000e+02
      vertex   7.878559e+00 1.492485e+01 -7.470000e+01
      vertex   8.031134e+00 1.340640e+01 -7.444534e+01
    endloop
  endfacet
  facet normal 9.949897e-01 9.997751e-02 0.000000e+00
    outer loop
      vertex   9.378222e+00 0.000000e+00 -1.050000e+02
      vertex   8.031134e+00 1.340640e+01 -7.444534e+01
      vertex   8.167174e+00 1.205251e+01 -7.370896e+01
    endloop
  endfacet
  facet normal 9.949897e-01 9.997751e-02 -2.860303e-17
    outer loop
      vertex   8.167174e+00 1.205251e+01 -7.370896e+01
      vertex   8.271939e+00 1.100988e+01 -7.257066e+01
      vertex   9.378222e+00 0.000000e+00 -1.050000e+02
    endloop
  endfacet
  facet normal 9.949897e-01 9.997751e-02 -9.914652e-17
    outer loop
      vertex   9.378222e+00 0.000000e+00 -1.050000e+02
      vertex   8.271939e+00 1.100988e+01 -7.257066e+01
      vertex   8.334075e+00 1.039149e+01 -7.115378e+01
    endloop
  endfacet
  facet normal 9.949897e-01 9.997751e-02 -2.608739e-16
    outer loop
      vertex   9.378222e+00 0.000000e+00 -1.050000e+02
      vertex   8.334075e+00 1.039149e+01 -7.115378e+01
      vertex   8.346848e+00 1.026437e+01 -6.961188e+01
    endloop
  endfacet
  facet normal 9.949897e-01 9.997751e-02 -2.524938e-17
    outer loop
      vertex   9.378222e+00 0.000000e+00 -1.050000e+02
      vertex   8.346848e+00 1.026437e+01 -6.961188e+01
      vertex   9.378222e+00 0.000000e+00 -3.500000e+01
    endloop
  endfacet
  facet normal 9.949897e-01 9.997751e-02 1.862106e-16
    outer loop
      vertex   9.378222e+00 0.000000e+00 -3.500000e+01
      vertex   8.346848e+00 1.026437e+01 -6.961188e+01
      vertex   8.308876e+00 1.064228e+01 -6.811203e+01
    endloop
  endfacet
  facet normal 9.949897e-01 9.997751e-02 2.545268e-16
    outer loop
      vertex   9.378222e+00 0.000000e+00 -3.500000e+01
      vertex   8.308876e+00 1.064228e+01 -6.811203e+01
      vertex   8.224272e+00 1.148427e+01 -6.681678e+01
    endloop
  endfacet
  facet normal 9.949897e-01 9.997751e-02 -1.560079e-16
    outer loop
      vertex   8.224272e+00 1.148427e+01 -6.681678e+01
      vertex   8.102204e+00 1.269910e+01 -6.586647e+01
      vertex   9.378222e+00 0.000000e+00 -3.500000e+01
    endloop
  endfacet
  facet normal 9.949897e-01 9.997751e-02 -6.887707e-17
    outer loop
      vertex   9.378222e+00 0.000000e+00 -3.500000e+01
      vertex   8.102204e+00 1.269910e+01 -6.586647e+01
      vertex   7.955901e+00 1.415513e+01 -6.536410e+01
    endloop
  endfacet
  facet normal 9.949897e-01 9.997751e-02 -7.562343e-17
    outer loop
      vertex   9.378222e+00 0.000000e+00 -3.500000e+01
      vertex   7.955901e+00 1.415513e+01 -6.536410e+01
      vertex   7.801217e+00 1.569456e+01 -6.536410e+01
    endloop
  endfacet
  facet normal 9.949897e-01 9.997751e-02 5.230396e-16
    outer loop
      vertex   7.801217e+00 1.569456e+01 -6.536410e+01
      vertex   7.654914e+00 1.715059e+01 -6.586647e+01
      vertex   9.378222e+00 0.000000e+00 -3.500000e+01
    endloop
  endfacet
  facet normal 9.949897e-01 9.997751e-02 -1.667465e-16
    outer loop
      vertex   9.378222e+00 0.000000e+00 -3.500000e+01
      vertex   7.654914e+00 1.715059e+01 -6.586647e+01
      vertex   7.532847e+00 1.836542e+01 -6.681678e+01
    endloop
  endfacet
  facet normal 9.949897e-01 9.997751e-02 2.293026e-17
    outer loop
      vertex   9.378222e+00 0.000000e+00 -3.500000e+01
      vertex   7.532847e+00 1.836542e+01 -6.681678e+01
      vertex   1.339746e+00 8.000000e+01 -1.064423e+02
    endloop
  endfacet
  facet normal 9.949897e-01 9.997751e-02 0.000000e+00
    outer loop
      vertex   1.339746e+00 8.000000e+01 -1.064423e+02
      vertex   7.532847e+00 1.836542e+01 -6.681678e+01
      vertex   7.448242e+00 1.920742e+01 -6.811203e+01
    endloop
  endfacet
  facet normal 9.949897e-01 9.997751e-02 0.000000e+00
    outer loop
      vertex   1.339746e+00 8.000000e+01 -1.064423e+02
      vertex   7.448242e+00 1.920742e+01 -6.811203e+01
      vertex   7.410270e+00 1.958532e+01 -6.961188e+01
    endloop
  endfacet
  facet normal 9.949897e-01 9.997751e-02 -2.100120e-16
    outer loop
      vertex   7.410270e+00 1.958532e+01 -6.961188e+01
      vertex   7.423043e+00 1.945820e+01 -7.115378e+01
      vertex   1.339746e+00 8.000000e+01 -1.064423e+02
    endloop
  endfacet
  facet normal 9.949897e-01 9.997751e-02 5.256279e-16
    outer loop
      vertex   1.339746e+00 8.000000e+01 -1.064423e+02
      vertex   7.423043e+00 1.945820e+01 -7.115378e+01
      vertex   7.485179e+00 1.883981e+01 -7.257066e+01
    endloop
  endfacet
  facet normal 9.949897e-01 9.997751e-02 0.000000e+00
    outer loop
      vertex   1.339746e+00 8.000000e+01 -1.064423e+02
      vertex   7.485179e+00 1.883981e+01 -7.257066e+01
      vertex   7.589944e+00 1.779718e+01 -7.370896e+01
    endloop
  endfacet
  facet normal 9.949897e-01 9.997751e-02 -1.118223e-16
    outer loop
      vertex   1.339746e+00 8.000000e+01 -1.064423e+02
      vertex   7.589944e+00 1.779718e+01 -7.370896e+01
      vertex   9.378222e+00 0.000000e+00 -1.050000e+02
    endloop
  endfacet
  facet normal 9.949897e-01 9.997751e-02 6.040672e-16
    outer loop
      vertex   9.378222e+00 0.000000e+00 -1.050000e+02
      vertex   7.589944e+00 1.779718e+01 -7.370896e+01
      vertex   7.725985e+00 1.644329e+01 -7.444534e+01
    endloop
  endfacet
  facet normal 9.949897e-01 9.997751e-02 1.420766e-16
    outer loop
      vertex   1.339746e+00 8.000000e+01 -1.164423e+02
      vertex   1.339746e+00 8.000000e+01 -1.064423e+02
      vertex   9.378222e+00 0.000000e+00 -1.050000e+02
    endloop
  endfacet
  facet normal 9.641896e-01 5.993072e-02 -2.583538e-01
    outer loop
      vertex   1.339746e+00 8.000000e+01 -1.164423e+02
      vertex   9.378222e+00 0.000000e+00 -1.050000e+02
      vertex   -8.326673e-16 8.000000e+01 -1.214423e+02
    endloop
  endfacet
  facet normal 9.641896e-01 5.993072e-02 -2.583538e-01
    outer loop
      vertex   -8.326673e-16 8.000000e+01 -1.214423e+02
      vertex   9.378222e+00 0.000000e+00 -1.050000e+02
      vertex   0.000000e+00 0.000000e+00 -1.400000e+02
    endloop
  endfacet
endsolid
